<svg xmlns="http://www.w3.org/2000/svg" viewBox="0 0 2002.5 2000"><defs><style>.cls-1{fill:#9957a3;}.cls-2{fill:#fff;}.cls-3{fill:#efeeed;}.cls-4{fill:#f37872;}.cls-5{fill:#d8ab4d;}.cls-6{fill:#4d4e4d;stroke:#0b0b0b;}.cls-6,.cls-7{stroke-miterlimit:10;stroke-width:5px;}.cls-7{fill:#b3b3b3;stroke:#080908;}.cls-8{fill:#a5a4a3;}</style></defs><title>Scale and Polish</title><g id="Layer_1" data-name="Layer 1"><rect class="cls-1" x="2.5" width="2000" height="2000"/></g><g id="Layer_2" data-name="Layer 2"><path class="cls-2" d="M813.47,1178s-100-153.13-100-249.61S693,608.92,898.07,652.5s64.09,47.81,225.6-5.58S1339,839.65,1251.85,1178,813.47,1178,813.47,1178Z" transform="translate(2.5)"/><path class="cls-2" d="M1341.57,1085.75S1223.65,649.83,1439,639.63s84.6,64.15,287.13,12.87,205.09,159,92.29,551.18S1341.57,1085.75,1341.57,1085.75Z" transform="translate(2.5)"/><path class="cls-3" d="M1270.46,1096.78c59-295.48,1.47-498.86-146.79-449.86-161.51,53.39-20.51,49.16-225.6,5.58a234.91,234.91,0,0,0-48.94-5.57C995.13,729.3,1234.91,893.17,1270.46,1096.78Z" transform="translate(2.5)"/><path class="cls-3" d="M1848.69,1091.59c80-319.55,59.71-485.23-122.57-439.09-202.53,51.28-71.79-23.07-287.13-12.87-35,1.66-61.18,14.57-80.51,35C1500.53,731.94,1827.11,885.29,1848.69,1091.59Z" transform="translate(2.5)"/><path class="cls-2" d="M193,1108.83S28.88,755.05,221.15,647.38c0,0,71.78-15.39,158.94,38.45s125.62-27.14,151.26-40.49S659.53,632,682.6,755.05s0,410.18-69.22,464S193,1108.83,193,1108.83Z" transform="translate(2.5)"/><path class="cls-3" d="M661.12,1126.09c30.85-110.46,38-282.87,21.48-371C659.53,632,557,632,531.35,645.34s-64.09,94.33-151.26,40.49-158.94-38.45-158.94-38.45c-2.65,1.48-5.22,3-7.74,4.59C350.09,683.27,607.5,786.9,661.12,1126.09Z" transform="translate(2.5)"/><path class="cls-4" d="M2000,1062.61q-40.61,1.77-88.9,8c-752,97.49-1783.38,17.54-1783.38,17.54S65,1076.42,0,1082.53v404c231.57,268.59,494,102.19,1203.81,168.31,308.24,28.71,601.41-72.47,796.19-199Z" transform="translate(2.5)"/><path class="cls-5" d="M159.93,984c-3.68,10.45-23.44,74.26,0,119s87.34,29.83,91.6,51.13,55.39,53.26,61.78,19.17,17.05-80.62,0-87.17-29.82-3.69-59.65-24.3S170,955.4,159.93,984Z" transform="translate(2.5)"/><path class="cls-5" d="M445.4,1083.27c-22.37-1.61-59.65,75.16,14.91,77.29s187.47-40.48,242.86-17,157.65,2.13,179,2.13,121.44-40.48-21.3-51.13c0,0-70.3-21.3-70.3-51.13s-57.2-36.22-77.6-19.17-69.4-20.73-80-9.3-44.67,14.92-51.13,55.67S466.7,1084.8,445.4,1083.27Z" transform="translate(2.5)"/><path class="cls-5" d="M1257.07,1049.78c-14.91,6.39-110.78,56.76-140.6,36.9s-51.13,63.23,29.82,65.36,285.47-46.87,323.82,0,255.64-32,294-12.78,121.25-37.76,129.12-52.58-50.43-46-69.47-24.81-166.17,35.91-187.47,8.72-137.58-17.55-144.42,0-130.23-37.85-182.51-29.33Z" transform="translate(2.5)"/><path class="cls-6" d="M758.23,643.67l367.21,228.48s65.28,20.4,118.32,28.56,97.92,57.12-57.12,236.65c0,0,142.8-224.41,16.32-216.25,0,0-89.76-8.16-122.41-30.6S705.19,643.67,705.19,643.67Z" transform="translate(2.5)"/><polygon class="cls-7" points="405.76 325.42 2.5 82.22 2.5 296.47 279.28 472.3 462.88 517.18 772.97 700.85 817.85 647.75 499.6 447.82 405.76 325.42"/><path class="cls-8" d="M0,292,210.94,426a1019.77,1019.77,0,0,0-36.75-233.77L0,87.13Z" transform="translate(2.5)"/></g></svg>