<svg id="Layer_1" data-name="Layer 1" xmlns="http://www.w3.org/2000/svg" viewBox="0 0 2001 2001"><defs><style>.cls-1{fill:#866baf;}.cls-1,.cls-3,.cls-4,.cls-9{stroke:#231f20;}.cls-1,.cls-3,.cls-4,.cls-7,.cls-8,.cls-9{stroke-miterlimit:10;}.cls-2,.cls-7,.cls-8,.cls-9{fill:none;}.cls-3{fill:#f4da6e;}.cls-4{fill:#e586b7;}.cls-5{fill:#fff;}.cls-6{fill:#d3d2d1;}.cls-7{stroke:#050606;}.cls-7,.cls-8,.cls-9{stroke-width:2px;}.cls-8{stroke:#020202;}</style></defs><title>Crowns</title><rect class="cls-1" x="0.5" y="0.5" width="2000" height="2000"/><rect class="cls-2" x="0.5" y="0.5" width="2000" height="2000"/><rect class="cls-3" x="0.5" y="1245.78" width="2000" height="754.72"/><path class="cls-4" d="M49.62,1399.5c49.62-56.82,192.78,168.42,223.22,99.43s62.9-200.89,96.9-188.72S356,1657.21,492,1488.78s168.46-156.25,209-170.45,125.81,290.18,211.34,93.34,70.72-2,71.89,50.73,136.82,22.33,232.19-97.4,107.55,4.06,150.17,66.45,154.22,100,159.05,51.25,39.81-166.4,68-174.52,16.49,121.76,26.64,146.11,93.34,48.7,229.3-73c64.82-58,115.34-44.15,150.46-13.7V1103.77c-89.41-5.15-223.51,7.58-223.51,7.58l-21.67,24.3-95.7-98.41s-57.14,88.31-219.48,56.33-286.12,0-286.12,0v9.66l-66.6,9.88s-101.83-62.64-106.09-74.81-93.14,85.22-188.51,44.64-249.6-8.12-249.6-8.12l-34.88,75.08-186.3-111.6S408,1130,268.78,1099.17s-268.78,0-268.78,0v339C15.52,1430.9,32.81,1418.74,49.62,1399.5Z" transform="translate(0.5 0.5)"/><path class="cls-5" d="M107.67,883.26s58.87,111.15,35.39,192.56-37.87,185.08,11.77,256.12,87.29,92.18,98.9,93,24.41-14.68,14.13-47.53-45.19-162.92,7-223.13,103.11-79,155.46,6.12-2.15,198-12.51,243.65,45.71,23.76,69.7,9.29,99.63-46.29,89.91-267.61c0,0-41.82-99.66,42-225.28s42.3-194,42.3-194S625.73,567.76,457.33,611c0,0-87.11,48.87-202.86-28.81S23.72,712,83.94,814.7Z" transform="translate(0.5 0.5)"/><path class="cls-6" d="M267.75,1377.19c-10.27-32.85-45.19-162.92,7-223.13s103.11-79,155.46,6.12-2.15,198-12.51,243.64,45.71,23.76,69.7,9.29,99.63-46.28,89.91-267.6c0,0-39.78-94.86,36.13-216.12-139.11,82.73-93.08,149-90,158.72,3.66,11.57,23.41,142.65-73.26-7.48s-196.49-11.9-196.49-11.9S193,1187,197.36,1054.88c2.94-89.5-46.14-129.88-78.13-146.62,15.82,37.53,40.3,109.85,23.72,167.35-23.49,81.41-37.87,185.08,11.77,256.12s87.29,92.18,98.9,93S278,1410,267.75,1377.19Z" transform="translate(0.5 0.5)"/><path class="cls-6" d="M457.33,611s-87.11,48.87-202.86-28.81C171.61,526.59,89.14,617.1,71.05,710.71,91.74,664,127.83,584,181.69,584c91.67,0,122.79,67.4,184.66,65.18s114.75-11.1,147.34-26.65c6.94-3.31,10.17-10.05,10.95-18.6C505,602.57,482.66,604.5,457.33,611Z" transform="translate(0.5 0.5)"/><path class="cls-5" d="M1334.93,893.71s58.87,111.15,35.39,192.56-37.88,185.08,11.76,256.12,87.3,92.18,98.91,93,24.4-14.68,14.13-47.53-45.19-162.92,7-223.13,103.12-79,155.46,6.12-2.14,198-12.51,243.65,45.71,23.76,69.71,9.29,99.63-46.29,89.91-267.61c0,0-41.82-99.66,42-225.28s42.3-194,42.3-194-36-158.7-204.45-115.46c0,0-87.11,48.87-202.87-28.81S1251,722.45,1311.2,825.15Z" transform="translate(0.5 0.5)"/><path class="cls-6" d="M1495,1387.64c-10.28-32.85-45.19-162.92,7-223.13s103.12-79,155.46,6.12-2.14,198-12.51,243.65,45.71,23.75,69.71,9.29,99.63-46.29,89.91-267.61c0,0-39.78-94.86,36.12-216.12-139.1,82.73-93.07,149-90,158.72,3.66,11.57,23.4,142.65-73.26-7.48s-196.49-11.9-196.49-11.9-60.7,118.3-56.35-13.85c3-89.5-46.13-129.88-78.13-146.62,15.82,37.53,40.31,109.85,23.73,167.35-23.49,81.41-37.88,185.08,11.76,256.12s87.3,92.18,98.91,93S1505.28,1420.49,1495,1387.64Z" transform="translate(0.5 0.5)"/><path class="cls-6" d="M1684.59,621.45s-87.11,48.87-202.87-28.81c-82.85-55.6-165.32,34.91-183.41,128.52C1319,674.44,1355.08,594.49,1409,594.49c91.67,0,122.79,67.41,184.65,65.18S1708.35,648.57,1741,633c6.94-3.31,10.17-10,11-18.6C1732.24,613,1709.91,615,1684.59,621.45Z" transform="translate(0.5 0.5)"/><path class="cls-7" d="M107.67,883.26s58.87,111.15,35.39,192.56-37.87,185.08,11.77,256.12,87.29,92.18,98.9,93,24.41-14.68,14.13-47.53-45.19-162.92,7-223.13,103.11-79,155.46,6.12-2.15,198-12.51,243.65,45.71,23.76,69.7,9.29,99.63-46.29,89.91-267.61c0,0-41.82-99.66,42-225.28s42.3-194,42.3-194S625.73,567.76,457.33,611c0,0-87.11,48.87-202.86-28.81S23.72,712,83.94,814.7Z" transform="translate(0.5 0.5)"/><path class="cls-7" d="M1334.93,893.71s58.87,111.15,35.39,192.56-37.88,185.08,11.76,256.12,87.3,92.18,98.91,93,24.4-14.68,14.13-47.53-45.19-162.92,7-223.13,103.12-79,155.46,6.12-2.14,198-12.51,243.65,45.71,23.76,69.71,9.29,99.63-46.29,89.91-267.61c0,0-41.82-99.66,42-225.28s42.3-194,42.3-194-36-158.7-204.45-115.46c0,0-87.11,48.87-202.87-28.81S1251,722.45,1311.2,825.15Z" transform="translate(0.5 0.5)"/><path class="cls-5" d="M1234.06,920.3c-251.08-83-436.74-23.12-495.08.94,15.31,39.64,33.43,103.06,18.57,154.58-23.49,81.42-37.87,185.08,11.77,256.12s87.29,92.18,98.9,93,24.41-14.68,14.13-47.53-45.19-162.92,7-223.13,103.12-79,155.47,6.12-2.15,198-12.52,243.65,45.71,23.76,69.71,9.29,99.63-46.29,89.91-267.61c0,0-41.82-99.66,42-225.28C1234,920.39,1234,920.34,1234.06,920.3Z" transform="translate(0.5 0.5)"/><path class="cls-6" d="M1137.94,1088.11c3.66,11.57,23.4,142.65-73.26-7.48s-196.49-11.9-196.49-11.9-60.7,118.3-56.35-13.85c2.52-76.26-32.74-116.84-63-137.54-3.59,1.37-6.89,2.69-9.84,3.9,15.31,39.64,33.43,103.06,18.57,154.58-21.28,73.78-35.09,165.83-.56,235.31a161.52,161.52,0,0,0,12.22,20.6c49.64,71,87.29,92.18,98.9,93s24.41-14.67,14.13-47.52-45.19-162.92,7-223.13,103.12-79,155.47,6.12q2.51,4.08,4.7,8.26c44.39,84.08-7.06,191.42-17.11,235.6-1.93,8.52-1.55,14.68.51,19,9.17,18.37,49.65,1.81,69.09-9.91,24-14.46,99.63-46.28,89.91-267.6,0,0-39.78-94.86,36.12-216.12C1088.85,1012.12,1134.88,1078.41,1137.94,1088.11Z" transform="translate(0.5 0.5)"/><path class="cls-6" d="M741.55,608.6s128.11,44.82,463.35-5.17L1071.74,439.21,932.15,472.67l-130.37,92.5Z" transform="translate(0.5 0.5)"/><path class="cls-5" d="M1266.47,377s-36-158.7-204.45-115.46c0,0-87.11,48.87-202.86-28.81S628.41,362.55,688.63,465.25l23.73,68.56a427.86,427.86,0,0,1,29.19,74.79c53.48-22.13,234.55-82.85,463.35-5.17A351.9,351.9,0,0,1,1224.17,571C1308,445.37,1266.47,377,1266.47,377Z" transform="translate(0.5 0.5)"/><path class="cls-6" d="M1234.06,920.3c-251.08-83-436.74-23.12-495.08.94,2.23,5.78,4.52,12.08,6.76,18.76h0c3.59-1.62-6,11.69,17.1,0,196.21-99.46,427.26-14.29,455.65-1.52,2.17,1,3.29,1.51,3.3,1.52q5.6-9.68,12.17-19.56C1234,920.39,1234,920.34,1234.06,920.3Z" transform="translate(0.5 0.5)"/><path class="cls-6" d="M1165.69,920.14s37.85,11,22.34,36.24,16.48,1.45,16.48,1.45L1223.23,934l-15.66-11.57Z" transform="translate(0.5 0.5)"/><path class="cls-6" d="M812.8,918.73s-36.28,11.19-22.4,42.66-20.83,11.76-20.83,11.76l-10.21-41.86L803.6,920.4l1-9.09Z" transform="translate(0.5 0.5)"/><path class="cls-6" d="M1062,261.55s-87.11,48.87-202.86-28.81c-82.86-55.61-165.33,34.91-183.42,128.52,20.69-46.72,56.78-126.67,110.64-126.67,91.67,0,122.79,67.4,184.65,65.18s114.76-11.1,147.35-26.65c6.94-3.31,10.17-10.05,10.95-18.6C1109.67,253.12,1087.34,255.05,1062,261.55Z" transform="translate(0.5 0.5)"/><path class="cls-8" d="M1234.06,920.3c-241.15-79.74-421.94-27.64-487.55-2.07l-.6.23-1.93.76-1.12.45-1.38.56c-.86.34-1.7.68-2.5,1,15.31,39.63,33.43,103,18.57,154.57l-1,3.66c-.11.41-.23.82-.34,1.22l-.69,2.48c-.14.48-.27,1-.4,1.44-.21.76-.41,1.52-.62,2.28l-.42,1.55c-.19.73-.39,1.47-.59,2.21l-.42,1.6-.57,2.19c-.14.53-.27,1.07-.41,1.61l-.57,2.23c-.13.53-.26,1.06-.4,1.59-.19.76-.37,1.52-.56,2.28-.13.52-.26,1-.38,1.57-.2.79-.38,1.59-.57,2.38l-.36,1.48c-.22.93-.43,1.87-.65,2.8l-.24,1.06c-.3,1.3-.59,2.6-.88,3.9-.06.24-.11.48-.16.72-.24,1.06-.47,2.12-.7,3.19-.1.46-.19.92-.29,1.39-.18.84-.36,1.68-.53,2.52l-.33,1.6-.48,2.36-.33,1.67c-.15.76-.3,1.52-.44,2.29l-.33,1.71-.42,2.28c-.11.57-.21,1.15-.32,1.72-.14.77-.27,1.54-.41,2.31l-.3,1.69c-.13.8-.27,1.59-.4,2.38l-.27,1.63-.42,2.58c-.07.47-.15.95-.23,1.43l-.48,3.19c0,.28-.09.56-.13.84-.19,1.33-.39,2.67-.57,4-.06.39-.11.79-.16,1.18-.13,1-.26,1.9-.38,2.85-.07.52-.13,1-.2,1.55l-.3,2.5c-.07.56-.14,1.12-.2,1.67l-.27,2.38c-.07.57-.13,1.15-.19,1.73l-.24,2.33c-.06.59-.12,1.17-.17,1.76-.08.77-.15,1.54-.22,2.32,0,.58-.11,1.16-.16,1.75-.07.78-.13,1.56-.19,2.34-.05.58-.1,1.15-.14,1.72l-.18,2.43c0,.55-.07,1.09-.11,1.63-.06.89-.11,1.77-.16,2.66,0,.46-.06.93-.08,1.4-.08,1.3-.14,2.61-.2,3.92,0,.14,0,.27,0,.4-.05,1.25-.1,2.5-.14,3.74,0,.47,0,.94,0,1.41,0,.88,0,1.76-.07,2.64,0,.54,0,1.08,0,1.62,0,.8,0,1.61,0,2.41,0,.58,0,1.15,0,1.73,0,.77,0,1.53,0,2.3,0,.59,0,1.18,0,1.77,0,.76,0,1.51,0,2.26,0,.6,0,1.19,0,1.78,0,.76,0,1.51,0,2.26l.06,1.76.09,2.3c0,.57.05,1.13.07,1.7,0,.8.09,1.61.13,2.42l.09,1.57c.06.92.12,1.84.19,2.76,0,.4,0,.8.08,1.21q.15,2,.33,3.93l.09,1c.1,1,.19,2,.3,3,.05.5.11,1,.16,1.49.09.82.18,1.63.28,2.44l.21,1.63c.1.76.19,1.52.3,2.28.07.56.16,1.13.24,1.69.1.74.21,1.47.32,2.21l.27,1.71.36,2.18.3,1.7c.13.73.26,1.46.4,2.19.1.55.2,1.11.31,1.66l.45,2.23.33,1.6c.17.79.35,1.58.53,2.37.1.47.21,1,.32,1.43.22,1,.46,2,.7,2.92l.21.85c.31,1.24.63,2.48,1,3.72l.33,1.2c.24.84.47,1.68.72,2.52.14.49.29,1,.44,1.47.22.74.44,1.48.67,2.22.17.52.34,1,.5,1.56l.69,2.11c.18.53.36,1.06.55,1.59.23.69.47,1.37.72,2.06.19.53.38,1.06.58,1.59.25.68.5,1.36.76,2l.6,1.57c.27.69.55,1.37.82,2l.62,1.53.9,2.09c.2.48.41,1,.62,1.44l1,2.28c.19.4.37.81.56,1.21.54,1.15,1.09,2.29,1.65,3.43.86,1.72,1.75,3.41,2.66,5.1l.2.37a163.7,163.7,0,0,0,9.47,15.35c49.64,71,87.3,92.18,98.91,93s24.4-14.68,14.13-47.52-45.19-162.93,7-223.14,103.12-79,155.46,6.12q2.46,4,4.6,8.06c.09.18.18.37.28.55.6,1.15,1.19,2.31,1.76,3.47.25.5.47,1,.72,1.52.39.85.8,1.69,1.18,2.53.26.58.5,1.17.75,1.75.34.78.69,1.56,1,2.34.25.61.49,1.22.73,1.84s.61,1.52.9,2.28.46,1.26.69,1.89.54,1.5.8,2.25.43,1.29.65,1.94.49,1.49.72,2.23.4,1.31.59,2,.44,1.48.65,2.22.36,1.33.54,2,.4,1.47.58,2.21.33,1.35.49,2,.35,1.48.51,2.21.29,1.36.44,2l.45,2.21c.13.68.25,1.36.38,2s.27,1.48.39,2.22.23,1.38.33,2.06.23,1.48.34,2.21.19,1.38.28,2.07.19,1.48.28,2.22.15,1.38.23,2.08.15,1.47.22,2.21.13,1.39.19,2.08.12,1.48.17,2.22.1,1.39.14,2.09.09,1.48.13,2.22l.09,2.08c0,.74.06,1.48.08,2.23s0,1.38.05,2.08l0,2.22c0,.69,0,1.39,0,2.08s0,1.48,0,2.22,0,1.39,0,2.08l-.06,2.22c0,.69,0,1.38-.07,2.08s-.06,1.48-.1,2.22-.06,1.38-.1,2.06-.09,1.49-.14,2.23-.09,1.37-.14,2-.11,1.49-.17,2.24-.11,1.35-.17,2-.14,1.49-.22,2.24-.13,1.35-.2,2-.16,1.49-.25,2.23-.15,1.34-.23,2-.19,1.49-.28,2.24-.17,1.32-.26,2-.21,1.52-.32,2.28l-.27,1.92c-.12.78-.24,1.55-.37,2.32-.09.62-.19,1.24-.29,1.86-.13.8-.26,1.6-.4,2.4l-.3,1.75c-.15.86-.31,1.73-.47,2.59-.09.51-.18,1-.28,1.54-.21,1.14-.44,2.28-.66,3.41-.11.52-.21,1-.31,1.56l-.66,3.18-.33,1.55-.54,2.48c-.13.59-.27,1.18-.4,1.77l-.51,2.24c-.14.6-.29,1.2-.43,1.8l-.51,2.17c-.15.61-.31,1.22-.46,1.84l-.51,2.08c-.16.62-.32,1.24-.47,1.86s-.35,1.36-.53,2l-.48,1.83c-.18.68-.35,1.35-.53,2s-.33,1.22-.49,1.82l-.54,2-.51,1.83-.54,1.92c-.17.61-.34,1.21-.52,1.81l-.54,1.9c-.17.6-.35,1.19-.52,1.78s-.37,1.26-.55,1.88-.35,1.17-.52,1.75-.37,1.24-.55,1.86-.36,1.16-.53,1.74l-.54,1.79-.54,1.74-.54,1.77c-.18.56-.35,1.12-.52,1.67s-.37,1.18-.55,1.77-.35,1.12-.53,1.67-.35,1.13-.53,1.69-.35,1.12-.53,1.67-.35,1.11-.52,1.65-.36,1.12-.53,1.67l-.51,1.6-.57,1.77c-.2.61-.39,1.23-.59,1.83-.26.83-.52,1.66-.79,2.47-.14.46-.29.93-.44,1.39s-.37,1.16-.55,1.73-.3.93-.44,1.38-.34,1.08-.52,1.62-.27.88-.41,1.32-.33,1-.49,1.54l-.42,1.34-.45,1.48c-.14.43-.27.86-.4,1.29s-.3,1-.44,1.44-.26.84-.38,1.25l-.42,1.4-.36,1.21-.39,1.36c-.11.38-.23.77-.34,1.16s-.25.91-.38,1.36-.2.71-.29,1.06-.26,1-.39,1.43l-.24.91c-.13.51-.26,1-.38,1.51l-.19.74c-.18.73-.35,1.45-.51,2.15-.21,1-.39,1.86-.55,2.75,0,.22-.08.44-.11.66-.15.87-.27,1.71-.36,2.53v0c-.09.83-.14,1.61-.18,2.38,0,.19,0,.37,0,.55,0,.74,0,1.48,0,2.17v0c0,.71.08,1.38.16,2,0,.14,0,.29,0,.43a19.5,19.5,0,0,0,.8,3.57c0,.11.07.22.11.33a14,14,0,0,0,.63,1.53h0c9,18.72,49.68,2.08,69.2-9.69,24-14.46,99.63-46.28,89.91-267.61,0,0-41.82-99.66,42-225.28Z" transform="translate(0.5 0.5)"/><path class="cls-8" d="M1265.27,377s-36.06-158.7-204.45-115.46c0,0-87.12,48.87-202.87-28.81S627.2,362.55,687.42,465.25l23.73,68.56a426.93,426.93,0,0,1,29.19,74.79s128.12,44.82,463.35-5.17A352.07,352.07,0,0,1,1223,571C1306.82,445.37,1265.27,377,1265.27,377Z" transform="translate(0.5 0.5)"/><path class="cls-9" d="M1266.47,377s-36-158.7-204.45-115.46c0,0-87.11,48.87-202.86-28.81S628.41,362.55,688.63,465.25l23.73,68.56a427.86,427.86,0,0,1,29.19,74.79c53.48-22.13,234.55-82.85,463.35-5.17A351.9,351.9,0,0,1,1224.17,571C1308,445.37,1266.47,377,1266.47,377Z" transform="translate(0.5 0.5)"/></svg>