<svg xmlns="http://www.w3.org/2000/svg" viewBox="0 0 2001 2001"><defs><style>.cls-1{fill:#faae6f;}.cls-1,.cls-3,.cls-4,.cls-7{stroke:#231f20;}.cls-1,.cls-3,.cls-4,.cls-6,.cls-7,.cls-9{stroke-miterlimit:10;}.cls-2,.cls-7,.cls-9{fill:none;}.cls-3{fill:#f4da6e;}.cls-4{fill:#e586b7;}.cls-5,.cls-6{fill:#d3d2d1;}.cls-6{stroke:#050606;}.cls-6,.cls-7,.cls-9{stroke-width:2px;}.cls-8{fill:#fff;}.cls-9{stroke:#020202;}</style></defs><title>Bridges</title><g id="Layer_1" data-name="Layer 1"><rect class="cls-1" x="0.5" y="0.5" width="2000" height="2000"/><rect class="cls-2" x="0.5" y="0.5" width="2000" height="2000"/><rect class="cls-3" x="0.5" y="1245.78" width="2000" height="754.72"/><path class="cls-4" d="M49.62,1399.5c49.62-56.82,192.78,168.42,223.22,99.43s62.9-200.89,96.9-188.72S356,1657.21,492,1488.78s168.46-156.25,209-170.45,125.81,290.18,211.34,93.34,70.72-2,71.89,50.73,136.82,22.33,232.19-97.4,107.55,4.06,150.17,66.45,154.22,100,159.05,51.25,39.81-166.4,68-174.52,16.49,121.76,26.64,146.11,93.34,48.7,229.3-73c64.82-58,115.34-44.15,150.46-13.7V1103.77c-89.41-5.15-223.51,7.58-223.51,7.58l-21.67,24.3-95.7-98.41s-57.14,88.31-219.48,56.33-286.12,0-286.12,0v9.66l-66.6,9.88s-101.83-62.64-106.09-74.81-93.14,85.22-188.51,44.64-249.6-8.12-249.6-8.12l-34.88,75.08-186.3-111.6S408,1130,268.78,1099.17s-268.78,0-268.78,0v339C15.52,1430.9,32.81,1418.74,49.62,1399.5Z" transform="translate(0.5 0.5)"/><path class="cls-5" d="M267.75,1377.19c-10.27-32.85-45.19-162.92,7-223.13s103.11-79,155.46,6.12-2.15,198-12.51,243.64,45.71,23.76,69.7,9.29,99.63-46.28,89.91-267.6c0,0-39.78-94.86,36.13-216.12-139.11,82.73-93.08,149-90,158.72,3.66,11.57,23.41,142.65-73.26-7.48s-196.49-11.9-196.49-11.9S193,1187,197.36,1054.88c2.94-89.5-46.14-129.88-78.13-146.62,15.82,37.53,40.3,109.85,23.72,167.35-23.49,81.41-37.87,185.08,11.77,256.12s87.29,92.18,98.9,93S278,1410,267.75,1377.19Z" transform="translate(0.5 0.5)"/><path class="cls-5" d="M1495,1387.64c-10.28-32.85-45.19-162.92,7-223.13s103.12-79,155.46,6.12-2.14,198-12.51,243.65,45.71,23.75,69.71,9.29,99.63-46.29,89.91-267.61c0,0-39.78-94.86,36.12-216.12-139.1,82.73-93.07,149-90,158.72,3.66,11.57,23.4,142.65-73.26-7.48s-196.49-11.9-196.49-11.9-60.7,118.3-56.35-13.85c3-89.5-46.13-129.88-78.13-146.62,15.82,37.53,40.31,109.85,23.73,167.35-23.49,81.41-37.88,185.08,11.76,256.12s87.3,92.18,98.91,93S1505.28,1420.49,1495,1387.64Z" transform="translate(0.5 0.5)"/></g><g id="Layer_2" data-name="Layer 2"><path class="cls-6" d="M1384,714.09s128.12,44.82,463.35-5.18L1714.21,544.7l-139.6,33.46-130.36,92.49Z" transform="translate(0.5 0.5)"/><path class="cls-6" d="M156.75,704.64s128.11,44.82,463.35-5.18L486.94,535.25,347.35,568.71,217,661.2Z" transform="translate(0.5 0.5)"/><path class="cls-5" d="M770.68,704.64s128.11,44.82,463.35-5.18L1100.87,535.25,961.28,568.71,830.91,661.2Z" transform="translate(0.5 0.5)"/><path class="cls-7" d="M1909.94,482.49s-36-158.69-204.45-115.45c0,0-87.12,48.87-202.87-28.81S1271.87,468,1332.09,570.74l23.74,68.56A427.4,427.4,0,0,1,1385,714.09c53.49-22.14,234.56-82.86,463.35-5.18a355.68,355.68,0,0,1,19.28-32.44C1951.49,550.85,1909.94,482.49,1909.94,482.49Z" transform="translate(0.5 0.5)"/><path class="cls-8" d="M1909.94,482.49s-36-158.69-204.45-115.45c0,0-87.12,48.87-202.87-28.81-86.35-58-172.28,42.81-185.36,140.37a78.41,78.41,0,0,1-18.56-1.32,40.92,40.92,0,0,0-2.09-4.24s-36.06-158.69-204.45-115.45c0,0-87.12,48.87-202.87-28.81C800.45,269.16,712.06,377.52,703,477.56a55.09,55.09,0,0,1-17.84.57,43.44,43.44,0,0,0-2.46-5.09S646.62,314.35,478.23,357.59c0,0-87.12,48.87-202.87-28.81S44.61,458.58,104.83,561.29l23.73,68.56a426.93,426.93,0,0,1,29.19,74.79c53.48-22.14,234.56-82.86,463.35-5.18,51.18,49.62,150.58,5.18,150.58,5.18S780,730,802.4,826.22s399.23,20.84,392.82,0S1235,699.46,1235,699.46c60.65,65.65,150,14.63,150,14.63,53.49-22.14,234.56-82.86,463.35-5.18a355.68,355.68,0,0,1,19.28-32.44C1951.49,550.85,1909.94,482.49,1909.94,482.49Z" transform="translate(0.5 0.5)"/><path class="cls-5" d="M478.23,357.59s-87.12,48.87-202.87-28.81C192.5,273.17,110,363.69,91.94,457.29c20.7-46.71,56.78-126.67,110.64-126.67,91.68,0,122.8,67.41,184.66,65.19S502,384.71,534.58,369.16c6.94-3.31,10.17-10.05,11-18.6C525.87,349.15,503.55,351.09,478.23,357.59Z" transform="translate(0.5 0.5)"/><path class="cls-5" d="M1092.16,357.59S1005,406.46,889.29,328.78C806.43,273.17,724,363.69,705.87,457.29c20.7-46.71,56.78-126.67,110.64-126.67,91.68,0,122.8,67.41,184.66,65.19s114.75-11.1,147.34-26.65c6.94-3.31,10.17-10.05,11-18.6C1139.8,349.15,1117.48,351.09,1092.16,357.59Z" transform="translate(0.5 0.5)"/><path class="cls-5" d="M1705.49,367s-87.12,48.87-202.87-28.81c-82.86-55.61-165.32,34.91-183.41,128.51C1339.9,420,1376,340.07,1429.85,340.07c91.67,0,122.79,67.41,184.65,65.19s114.75-11.1,147.34-26.65c7-3.31,10.18-10.05,11-18.6C1753.14,358.6,1730.81,360.54,1705.49,367Z" transform="translate(0.5 0.5)"/><path class="cls-8" d="M618.77,920.08C367.69,837.05,182,897,123.68,921c15.31,39.63,33.43,103,18.57,154.58C118.77,1157,104.38,1260.69,154,1331.73s87.29,92.18,98.91,93,24.4-14.67,14.12-47.52-45.18-162.92,7-223.13,103.11-79,155.46,6.12-2.15,198-12.51,243.64,45.71,23.76,69.7,9.29,99.63-46.28,89.92-267.6c0,0-41.83-99.67,42-225.29Z" transform="translate(0.5 0.5)"/><path class="cls-5" d="M522.65,1087.89c3.65,11.58,23.4,142.66-73.26-7.48s-196.49-11.89-196.49-11.89-60.7,118.3-56.35-13.86c2.51-76.25-32.75-116.84-63-137.54-3.6,1.38-6.9,2.69-9.85,3.91,15.31,39.63,33.43,103,18.57,154.58-21.28,73.77-35.09,165.82-.56,235.31a163.29,163.29,0,0,0,12.22,20.59c49.64,71,87.29,92.18,98.91,93s24.4-14.68,14.12-47.53-45.18-162.92,7-223.13,103.11-79,155.46,6.12q2.52,4.1,4.7,8.27c44.4,84.07-7.06,191.41-17.1,235.59-1.94,8.52-1.55,14.68.5,19,9.17,18.38,49.66,1.82,69.09-9.9,24-14.47,99.63-46.29,89.92-267.61,0,0-39.78-94.85,36.12-216.12C473.56,1011.91,519.58,1078.2,522.65,1087.89Z" transform="translate(0.5 0.5)"/><path class="cls-5" d="M618.77,920.08C367.69,837.05,182,897,123.68,921c2.24,5.78,4.53,12.07,6.77,18.75h0c3.59-1.61-6,11.7,17.11,0,196.2-99.45,427.26-14.29,455.65-1.52,2.16,1,3.29,1.52,3.29,1.52,3.74-6.44,7.77-13,12.18-19.56Z" transform="translate(0.5 0.5)"/><path class="cls-9" d="M618.77,920.08C377.61,840.34,196.83,892.44,131.22,918l-.61.24-1.92.76-1.12.44-1.39.56-2.5,1c15.31,39.63,33.43,103,18.57,154.58-.35,1.21-.7,2.43-1,3.65-.12.41-.23.82-.35,1.23l-.69,2.47-.39,1.44-.63,2.29c-.14.51-.27,1-.41,1.54-.2.74-.4,1.47-.59,2.21l-.42,1.6-.57,2.19-.42,1.61c-.19.74-.38,1.49-.56,2.23-.14.53-.27,1.06-.4,1.6-.19.75-.38,1.51-.56,2.27l-.39,1.57-.57,2.38c-.12.5-.24,1-.35,1.48l-.66,2.81-.24,1c-.3,1.3-.59,2.6-.88,3.9,0,.24-.1.49-.16.73l-.69,3.18-.3,1.39c-.17.84-.35,1.68-.53,2.53l-.33,1.6c-.16.78-.32,1.56-.47,2.35l-.33,1.67-.45,2.29-.33,1.72-.42,2.27c-.11.58-.21,1.15-.31,1.72l-.42,2.31c-.09.57-.19,1.13-.29,1.7-.14.79-.27,1.58-.41,2.38l-.27,1.62c-.14.86-.28,1.72-.41,2.58-.08.48-.16.95-.23,1.43-.17,1.07-.33,2.13-.49,3.2l-.12.83c-.2,1.34-.39,2.68-.58,4,0,.39-.1.78-.16,1.17-.12,1-.25,1.91-.38,2.86-.06.51-.13,1-.19,1.55-.11.83-.21,1.66-.31,2.49-.07.56-.13,1.12-.2,1.68l-.27,2.37-.18,1.73c-.09.78-.17,1.56-.25,2.34-.06.58-.11,1.16-.17,1.75-.07.77-.15,1.55-.22,2.32l-.15,1.75c-.07.78-.14,1.57-.2,2.35,0,.57-.09,1.14-.14,1.72-.06.81-.11,1.62-.17,2.43,0,.54-.08,1.08-.11,1.62-.06.89-.11,1.77-.17,2.66,0,.47,0,.93-.08,1.4-.07,1.31-.14,2.62-.2,3.93,0,.13,0,.26,0,.39-.06,1.25-.1,2.5-.14,3.75,0,.47,0,.94,0,1.4,0,.88,0,1.76-.07,2.64l0,1.62,0,2.42c0,.57,0,1.15,0,1.72V1211c0,.59,0,1.17,0,1.76l0,2.27,0,1.77.06,2.27c0,.58,0,1.17,0,1.75l.09,2.31c0,.56,0,1.13.08,1.69,0,.81.08,1.61.13,2.42,0,.52,0,1,.08,1.57.06.92.13,1.84.19,2.76l.09,1.21c.1,1.32.21,2.63.32,3.93,0,.33.07.65.1,1,.09,1,.19,2,.29,3,0,.49.11,1,.17,1.49.09.81.18,1.62.28,2.43.06.55.13,1.09.2,1.64l.3,2.27.24,1.69c.11.74.21,1.48.33,2.22.08.56.17,1.13.27,1.7.11.73.23,1.46.36,2.18.09.57.19,1.14.29,1.7.13.73.26,1.46.4,2.19.1.56.21,1.11.32,1.66.14.75.29,1.49.45,2.24.11.53.21,1.06.33,1.59.17.79.34,1.58.52,2.37.11.48.21,1,.32,1.43.23,1,.47,2,.71,2.93.06.28.13.56.2.84.31,1.25.64,2.49,1,3.72.11.4.23.8.34,1.2.23.84.47,1.68.71,2.52.14.49.29,1,.44,1.48.22.74.45,1.48.68,2.21.16.53.33,1,.5,1.57.22.7.45,1.4.69,2.11l.54,1.58.72,2.06c.19.53.38,1.06.58,1.59.25.68.5,1.36.76,2,.2.52.4,1.05.61,1.57l.81,2,.63,1.52c.29.7.59,1.4.89,2.1.21.48.41,1,.62,1.43.34.76.69,1.52,1,2.28.18.4.36.81.55,1.21.54,1.15,1.09,2.29,1.66,3.43q1.27,2.58,2.66,5.11l.19.36a162.51,162.51,0,0,0,9.48,15.35c49.64,71,87.29,92.18,98.9,93s24.41-14.67,14.13-47.52-45.19-162.92,7-223.13,103.11-79,155.46,6.12q2.44,4,4.59,8c.1.18.19.37.28.55.61,1.16,1.2,2.31,1.76,3.47.25.51.48,1,.72,1.53.4.84.8,1.68,1.18,2.53.26.58.51,1.16.76,1.74.34.78.68,1.56,1,2.34.26.61.49,1.23.73,1.84s.61,1.52.9,2.28.46,1.26.69,1.9.55,1.49.81,2.24.43,1.3.64,1.94.49,1.49.72,2.23.4,1.32.59,2,.45,1.48.66,2.23.36,1.33.53,2,.4,1.48.59,2.21l.48,2c.18.73.35,1.47.52,2.21s.29,1.35.43,2,.31,1.48.45,2.22.26,1.36.38,2,.27,1.48.4,2.22l.33,2.06c.11.73.23,1.47.33,2.21s.19,1.38.28,2.07.19,1.48.28,2.22.16,1.38.23,2.07.16,1.48.23,2.22l.18,2.08.18,2.22c.05.69.09,1.39.14,2.08l.12,2.22c0,.69.07,1.39.09,2.08s.06,1.49.08,2.23,0,1.39.05,2.08,0,1.48,0,2.22,0,1.39,0,2.08,0,1.49,0,2.23l0,2.08-.06,2.22c0,.69,0,1.38-.07,2.07s-.06,1.48-.09,2.22-.07,1.38-.11,2.07-.09,1.48-.14,2.22-.08,1.37-.13,2l-.18,2.24c-.06.68-.11,1.35-.17,2l-.21,2.23c-.07.68-.13,1.35-.2,2s-.17,1.49-.25,2.23-.15,1.34-.23,2-.19,1.5-.29,2.25-.16,1.31-.25,2-.22,1.51-.32,2.27-.18,1.28-.28,1.92l-.36,2.33c-.1.62-.19,1.23-.29,1.85-.13.8-.27,1.6-.41,2.4-.1.58-.19,1.17-.29,1.75l-.48,2.59c-.09.51-.18,1-.28,1.54q-.31,1.71-.66,3.42c-.1.52-.21,1-.31,1.55-.22,1.06-.43,2.13-.65,3.18-.11.52-.23,1-.34,1.55l-.54,2.48c-.13.6-.26,1.18-.4,1.77l-.51,2.24c-.14.61-.28,1.2-.43,1.81l-.51,2.16-.45,1.84c-.17.7-.34,1.39-.52,2.08s-.31,1.24-.47,1.86-.35,1.36-.52,2l-.48,1.83-.54,2c-.16.6-.33,1.21-.49,1.82l-.54,2-.51,1.83-.54,1.93-.51,1.8c-.18.64-.37,1.28-.55,1.91s-.34,1.18-.52,1.78-.36,1.25-.55,1.88-.34,1.16-.52,1.75-.37,1.24-.55,1.85-.35,1.16-.53,1.74l-.54,1.79c-.18.58-.35,1.16-.53,1.74l-.55,1.78c-.17.56-.35,1.11-.52,1.67s-.37,1.18-.55,1.76-.35,1.12-.52,1.67l-.54,1.7-.52,1.66c-.18.56-.35,1.11-.53,1.66s-.35,1.11-.53,1.66l-.51,1.6-.57,1.78c-.19.61-.39,1.22-.58,1.83-.27.83-.53,1.65-.79,2.46-.15.47-.3.93-.44,1.39s-.37,1.16-.56,1.74-.29.92-.44,1.37l-.51,1.63-.42,1.31-.48,1.55c-.14.45-.29.9-.42,1.34s-.31,1-.46,1.47-.27.87-.4,1.29-.29,1-.44,1.44-.25.84-.38,1.26-.28.93-.41,1.39-.25.81-.36,1.21-.27.91-.4,1.36l-.33,1.16c-.13.46-.26.91-.38,1.36s-.2.72-.3,1.06c-.13.49-.26,1-.38,1.43-.08.3-.17.61-.24.91-.14.51-.26,1-.39,1.51l-.18.74c-.18.74-.35,1.45-.51,2.16-.22.94-.4,1.85-.55,2.74l-.12.67c-.14.86-.27,1.71-.36,2.52v0c-.09.83-.15,1.62-.19,2.39,0,.18,0,.36,0,.54,0,.75,0,1.48,0,2.17v0c0,.71.08,1.39.16,2,0,.15,0,.29.05.43a19.5,19.5,0,0,0,.8,3.57l.12.33a14,14,0,0,0,.62,1.53h0c9,18.73,49.69,2.08,69.2-9.68,24-14.47,99.63-46.29,89.92-267.61,0,0-41.83-99.67,42-225.29Z" transform="translate(0.5 0.5)"/><path class="cls-8" d="M1846.51,931.44c-251.08-83-436.74-23.12-495.08.95C1366.74,972,1384.86,1035.44,1370,1087c-23.49,81.41-37.88,185.08,11.76,256.12s87.3,92.18,98.91,93,24.41-14.67,14.13-47.52-45.19-162.92,7-223.13,103.12-79,155.47,6.12-2.15,198-12.52,243.64,45.71,23.76,69.71,9.29,99.63-46.28,89.91-267.6c0,0-41.82-99.67,42-225.29Z" transform="translate(0.5 0.5)"/><path class="cls-5" d="M1750.39,1099.25c3.66,11.58,23.4,142.66-73.26-7.48s-196.49-11.89-196.49-11.89-60.7,118.3-56.35-13.86c2.52-76.25-32.74-116.84-63-137.54-3.59,1.38-6.89,2.69-9.84,3.91C1366.74,972,1384.86,1035.44,1370,1087c-21.28,73.77-35.1,165.82-.56,235.31a163.21,163.21,0,0,0,12.21,20.59c49.64,71,87.3,92.18,98.91,93s24.41-14.68,14.13-47.53-45.19-162.92,7-223.13,103.12-79,155.47,6.12q2.5,4.1,4.7,8.27c44.39,84.07-7.06,191.41-17.11,235.59-1.93,8.52-1.55,14.68.51,19,9.17,18.38,49.65,1.82,69.09-9.9,24-14.47,99.63-46.29,89.91-267.61,0,0-39.78-94.85,36.12-216.12C1701.3,1023.27,1747.33,1089.56,1750.39,1099.25Z" transform="translate(0.5 0.5)"/><path class="cls-5" d="M1846.51,931.44c-251.08-83-436.74-23.12-495.08.95,2.23,5.78,4.52,12.07,6.76,18.75h0c3.59-1.61-6,11.7,17.1,0,196.21-99.45,427.26-14.29,455.65-1.52,2.17,1,3.29,1.52,3.3,1.52q5.6-9.66,12.17-19.56Z" transform="translate(0.5 0.5)"/><path class="cls-9" d="M1846.51,931.44c-241.15-79.74-421.94-27.64-487.55-2.07l-.6.24-1.93.76-1.12.44-1.39.56-2.49,1C1366.74,972,1384.86,1035.44,1370,1087l-1,3.65c-.11.41-.23.82-.34,1.23l-.69,2.47c-.14.48-.27,1-.4,1.44-.21.76-.42,1.52-.62,2.29l-.42,1.54c-.19.74-.39,1.47-.59,2.21l-.42,1.6-.57,2.19c-.14.54-.27,1.08-.41,1.61l-.57,2.23c-.13.53-.26,1.06-.4,1.6-.19.75-.37,1.51-.56,2.27-.13.53-.26,1-.38,1.57-.2.79-.39,1.59-.57,2.38l-.36,1.48c-.22.93-.43,1.87-.65,2.81-.08.35-.16.7-.25,1-.29,1.3-.59,2.6-.87,3.9-.06.24-.11.49-.16.73-.24,1.06-.47,2.12-.7,3.18-.1.46-.19.93-.29,1.39-.18.84-.36,1.68-.53,2.53l-.33,1.6-.48,2.35-.33,1.67c-.15.76-.3,1.53-.44,2.29l-.33,1.72-.42,2.27c-.11.58-.21,1.15-.32,1.72-.14.77-.27,1.54-.41,2.31l-.3,1.7c-.13.79-.27,1.58-.4,2.38l-.27,1.62-.42,2.58c-.07.48-.15,1-.23,1.43l-.48,3.2c0,.28-.09.55-.13.83-.19,1.34-.39,2.68-.57,4-.06.39-.11.78-.16,1.17-.13,1-.26,1.91-.38,2.86-.07.51-.13,1-.2,1.55-.1.83-.2,1.66-.31,2.49-.06.56-.13,1.12-.19,1.68l-.27,2.37c-.07.58-.13,1.16-.19,1.73l-.24,2.34c-.06.58-.12,1.16-.17,1.75-.08.77-.15,1.55-.22,2.32,0,.58-.11,1.17-.16,1.75-.07.78-.13,1.57-.19,2.35-.05.57-.1,1.14-.14,1.72l-.18,2.43c0,.54-.07,1.08-.11,1.62-.06.89-.11,1.77-.16,2.66,0,.47-.06.93-.08,1.4-.08,1.31-.14,2.62-.2,3.93,0,.13,0,.26,0,.39,0,1.25-.1,2.5-.14,3.75,0,.47,0,.94,0,1.4,0,.88,0,1.76-.07,2.64,0,.54,0,1.08,0,1.62,0,.81,0,1.61,0,2.41v1.73c0,.77,0,1.54,0,2.31,0,.59,0,1.17,0,1.76,0,.76,0,1.51,0,2.27,0,.59,0,1.18,0,1.77,0,.76,0,1.51,0,2.27l.06,1.75c0,.77.06,1.54.09,2.31,0,.56,0,1.13.07,1.69,0,.81.09,1.61.13,2.42l.09,1.57c.06.92.12,1.84.19,2.76,0,.4,0,.81.08,1.21q.15,2,.33,3.93l.09,1c.1,1,.19,2,.3,3,0,.5.11,1,.16,1.5.09.81.18,1.62.28,2.43l.21,1.64c.1.76.19,1.52.3,2.27.07.57.15,1.13.24,1.69.1.74.21,1.48.32,2.21l.27,1.71.36,2.18.3,1.7c.13.73.26,1.46.4,2.19.1.56.2,1.11.31,1.66l.45,2.24.33,1.59c.17.79.35,1.58.53,2.37.1.48.21.95.32,1.43.22,1,.46,2,.7,2.93l.21.84c.31,1.25.63,2.49,1,3.72l.33,1.2c.24.84.47,1.68.72,2.52.14.49.29,1,.44,1.48.22.74.44,1.48.67,2.21.17.53.34,1,.5,1.57l.69,2.11c.18.53.36,1.06.55,1.58.23.69.47,1.38.72,2.06l.57,1.59c.25.68.51,1.36.77,2l.6,1.57c.27.68.54,1.36.82,2,.21.51.41,1,.62,1.52l.9,2.1c.2.48.41,1,.62,1.43.34.76.68,1.52,1,2.28.19.4.37.81.56,1.21.54,1.15,1.09,2.29,1.65,3.43q1.29,2.58,2.66,5.11l.2.36a162.41,162.41,0,0,0,9.47,15.35c49.64,71,87.3,92.18,98.91,93s24.4-14.67,14.13-47.52-45.19-162.92,7-223.13,103.12-79,155.46,6.12q2.46,4,4.6,8c.09.18.18.37.28.55.6,1.16,1.19,2.31,1.76,3.47.25.51.47,1,.71,1.53.4.84.81,1.68,1.19,2.53.26.58.5,1.16.75,1.74.34.78.69,1.56,1,2.34.25.61.49,1.23.73,1.84.3.76.61,1.52.9,2.28s.46,1.26.69,1.9.54,1.49.8,2.24.43,1.3.64,1.94.5,1.49.73,2.23.39,1.32.59,2,.44,1.48.65,2.22.36,1.34.54,2,.4,1.48.58,2.21.33,1.35.49,2,.35,1.47.51,2.21.29,1.35.44,2l.45,2.22c.13.68.25,1.36.38,2s.27,1.48.39,2.22.23,1.37.33,2.06.23,1.47.34,2.21.19,1.38.28,2.07.19,1.48.28,2.22.15,1.38.23,2.07.15,1.48.22,2.22.13,1.38.19,2.08.12,1.48.17,2.22.1,1.39.14,2.08.09,1.48.13,2.22l.09,2.08c0,.74,0,1.49.08,2.23s0,1.39,0,2.08l0,2.22c0,.7,0,1.39,0,2.08s0,1.49,0,2.23,0,1.38,0,2.08,0,1.48,0,2.22,0,1.38-.07,2.07-.06,1.48-.1,2.22-.06,1.38-.1,2.07-.09,1.48-.14,2.22-.09,1.37-.14,2.05-.11,1.49-.17,2.24-.11,1.35-.17,2-.15,1.49-.22,2.23-.13,1.35-.2,2-.16,1.49-.25,2.23-.15,1.34-.23,2-.19,1.5-.28,2.25-.17,1.31-.26,2-.21,1.51-.32,2.27l-.27,1.92c-.12.78-.24,1.55-.37,2.33-.09.62-.19,1.23-.29,1.85-.13.8-.27,1.6-.4,2.4l-.3,1.75c-.15.87-.31,1.73-.47,2.59-.09.51-.18,1-.28,1.54-.21,1.14-.44,2.28-.66,3.42-.11.52-.21,1-.31,1.55l-.66,3.18-.33,1.55-.54,2.48c-.13.6-.27,1.18-.4,1.77l-.51,2.24c-.14.61-.29,1.2-.43,1.81l-.51,2.16c-.15.62-.31,1.23-.46,1.84l-.51,2.08-.48,1.86c-.17.68-.34,1.36-.52,2l-.48,1.83c-.18.67-.35,1.35-.53,2s-.33,1.21-.5,1.82-.35,1.32-.53,2l-.51,1.83-.54,1.93c-.17.6-.34,1.2-.52,1.8l-.54,1.91c-.17.59-.35,1.18-.52,1.78L1663,1355c-.17.59-.35,1.17-.52,1.76s-.37,1.24-.56,1.85-.35,1.16-.52,1.74l-.54,1.79-.54,1.74-.54,1.78c-.18.56-.35,1.11-.52,1.67s-.37,1.18-.55,1.76-.35,1.12-.53,1.67l-.53,1.7c-.18.55-.35,1.11-.53,1.66s-.35,1.11-.52,1.66-.36,1.11-.53,1.66l-.51,1.6c-.19.59-.38,1.19-.57,1.77s-.39,1.23-.59,1.84c-.26.83-.53,1.65-.79,2.46-.14.47-.29.93-.44,1.39s-.37,1.16-.55,1.74-.3.92-.44,1.37-.35,1.09-.52,1.62-.28.89-.41,1.32-.33,1-.49,1.55l-.42,1.34-.45,1.47c-.14.43-.27.87-.4,1.29s-.3,1-.44,1.44-.26.84-.38,1.26-.28.93-.42,1.39l-.36,1.21-.39,1.36c-.11.39-.23.78-.34,1.16s-.25.91-.38,1.36-.2.72-.29,1.06-.26,1-.39,1.43l-.24.91c-.13.51-.26,1-.38,1.51-.06.25-.13.5-.19.74-.18.74-.35,1.45-.51,2.16-.21.94-.39,1.85-.55,2.74,0,.23-.08.45-.11.67-.15.86-.27,1.71-.36,2.52v0c-.09.83-.14,1.62-.18,2.39,0,.18,0,.36,0,.54,0,.75,0,1.48,0,2.17v0c0,.71.08,1.39.16,2,0,.15,0,.29,0,.43a19.5,19.5,0,0,0,.8,3.57c0,.11.07.22.11.33a16.27,16.27,0,0,0,.62,1.53h0c9,18.73,49.68,2.08,69.19-9.68,24-14.47,99.64-46.29,89.92-267.61,0,0-41.82-99.67,42-225.29Z" transform="translate(0.5 0.5)"/><path class="cls-5" d="M1195.22,826.22a22.19,22.19,0,0,1-.52-7.63l-.9.24c-236.54,62.86-397-16.78-397-16.78l-.07.1q2.67,11.22,5.67,24.07C824.85,922.42,1201.63,847.06,1195.22,826.22Z" transform="translate(0.5 0.5)"/><path class="cls-7" d="M1910,482.49S1874,323.8,1705.58,367c0,0-87.11,48.87-202.86-28.81-86.36-58-172.29,42.81-185.36,140.37a78.53,78.53,0,0,1-18.57-1.32,38.48,38.48,0,0,0-2.09-4.24s-36-158.69-204.45-115.45c0,0-87.12,48.87-202.87-28.81-88.84-59.62-177.23,48.74-186.3,148.78a55.16,55.16,0,0,1-17.85.57,43.44,43.44,0,0,0-2.46-5.09s-36-158.69-204.45-115.45c0,0-87.12,48.87-202.87-28.81S44.7,458.58,104.92,561.29l23.74,68.56a427.4,427.4,0,0,1,29.18,74.79c53.49-22.14,234.56-82.86,463.35-5.18,51.18,49.62,150.58,5.18,150.58,5.18s8.28,25.38,30.72,121.58,399.23,20.84,392.82,0,39.81-126.76,39.81-126.76c60.65,65.65,150,14.63,150,14.63,53.49-22.14,234.56-82.86,463.35-5.18a355.68,355.68,0,0,1,19.28-32.44C1951.59,550.85,1910,482.49,1910,482.49Z" transform="translate(0.5 0.5)"/></g></svg>