<svg xmlns="http://www.w3.org/2000/svg" viewBox="0 0 2001 2001"><defs><style>.cls-1{fill:#f7e64b;stroke:#231f20;}.cls-1,.cls-5,.cls-6,.cls-8{stroke-miterlimit:10;}.cls-2{fill:#8e8e8b;}.cls-3{fill:#fff;}.cls-4,.cls-7{fill:#d3d2d1;}.cls-5{fill:#757576;}.cls-5,.cls-8{stroke:#0b0b0b;}.cls-5,.cls-6,.cls-8{stroke-width:2px;}.cls-6{fill:#6b6b68;stroke:#020202;}.cls-7{opacity:0.15;}.cls-8{fill:none;}</style></defs><title>Dental implants</title><g id="Layer_2" data-name="Layer 2"><rect class="cls-1" x="0.5" y="0.5" width="2000" height="2000"/></g><g id="Layer_1" data-name="Layer 1"><path class="cls-2" d="M973.27,1921.35h0c-102.95,0-133.17-152.3-133.17-255.25L786.86,1176c0-103,83.46-186.41,186.41-186.41h0c103,0,186.41,83.46,186.41,186.41l-49.46,475.25C1110.22,1754.18,1076.22,1921.35,973.27,1921.35Z" transform="translate(0.5 0.5)"/><path class="cls-3" d="M599.18,979.54c.86-.08,1.72-.14,2.59-.18,25.26-1.13,47,22.35,46.88,46.88-.11,33.78-3.51,67.38-7.31,100.92-.34,3-.69,6-1,9,2.31,0,4.62,0,6.93,0A50.11,50.11,0,0,1,672.8,1128c54-1.54,107.94,1.59,161.9,0a42.41,42.41,0,0,1,11.36,1.19c86.59-90.73,171.43-110.92,258.49,29.91q15.95-3.73,32.22-6.33a52.25,52.25,0,0,1,10.16-1.64l1.33-.08c17.41-2.4,34.94-3.91,52.36-4.67a405.87,405.87,0,0,1,59.81,1.44q11.29-1.15,22.56-2.56c10-1.52,20.07-3.42,30.09-3.94,0-5.4.06-10.81,0-16.21a458.75,458.75,0,0,0-3.22-52.66c-1.54-12,5.94-24.66,13.73-33.14,6.68-7.29,16-11.3,25.55-12.92-1.59-73,15.4-177.37,93.47-294.32,149.59-224.09,75.46-346,75.46-346s-64.31-283.11-364.72-206c0,0-155.41,87.18-361.91-51.4S379.8,360.27,487.23,543.49L529.57,665.8S621,838.44,599.18,979.54Z" transform="translate(0.5 0.5)"/><path class="cls-4" d="M1153.35,180.1s-155.41,87.18-361.91-51.4C643.63,29.51,496.51,191,464.24,358c36.91-83.34,101.28-226,197.37-226C825.15,132,880.67,252.25,991,248.28s204.71-19.8,262.85-47.54c12.38-5.91,18.14-17.93,19.54-33.18C1238.34,165.05,1198.52,168.5,1153.35,180.1Z" transform="translate(0.5 0.5)"/><path class="cls-5" d="M610.91,966.21h731.25a12,12,0,0,1,12,12v153.38a32.3,32.3,0,0,1-32.3,32.3H628.12a29.21,29.21,0,0,1-29.21-29.21V978.21A12,12,0,0,1,610.91,966.21Z"/><path class="cls-6" d="M1159.68,1201.91s-179.09,82.36-362.89,65.42c0,0-56.51,29.85,7.85,72.36s343-48.1,343-48.1S1220.06,1229.18,1159.68,1201.91Z" transform="translate(0.5 0.5)"/><path class="cls-6" d="M1140.43,1350.42S979,1432.78,813.35,1415.84c0,0-50.94,29.85,7.08,72.36s309.15-48.09,309.15-48.09S1194.86,1377.69,1140.43,1350.42Z" transform="translate(0.5 0.5)"/><path class="cls-6" d="M1128.48,1487.89s-147.72,82.36-299.33,65.42c0,0-46.62,29.85,6.48,72.35s282.92-48.09,282.92-48.09S1178.29,1515.15,1128.48,1487.89Z" transform="translate(0.5 0.5)"/><path class="cls-6" d="M1114.48,1628.62S979.66,1711,841.28,1694c0,0-42.54,29.85,5.92,72.36s258.22-48.1,258.22-48.1S1159.94,1655.89,1114.48,1628.62Z" transform="translate(0.5 0.5)"/><path class="cls-4" d="M1153.41,180.1S998,267.28,791.5,128.7C586.47-8.89,382.77,355,485.05,539.56,476,460.27,471,326,528.38,258.23c84.49-99.85,91-119.82,209.08-116.75s114.66,98.26,221.61,104.43,272.89-41.45,314.35-46S1445.8,275.53,1490,358c18.65,34.78,32,87.25,45.83,135.61,4.74-70.57-17.7-107.51-17.7-107.51S1453.81,103,1153.41,180.1Z" transform="translate(0.5 0.5)"/><path class="cls-7" d="M1518.13,386.07S1453.81,103,1153.4,180.1c0,0-112,62.79-272.14-3,93,89.06,181.71,197.94,166.67,278.78-25,134.53,125.93,383.46,307.29,488.8,10.24-61.44,35.1-134.16,87.45-212.59C1592.26,508,1518.13,386.07,1518.13,386.07Z" transform="translate(0.5 0.5)"/><path class="cls-8" d="M1522.34,394.79l0-.12c-.24-.57-.48-1.11-.7-1.62,0-.09-.09-.19-.13-.28l-.57-1.25c-.06-.13-.11-.25-.17-.37l-.45-.95-.29-.6-.25-.51c-.14-.28-.27-.54-.4-.78l0-.06c-.75-1.44-1.2-2.19-1.2-2.19s-49.54-218-264.67-219.27h-.72c-1.06,0-2.11,0-3.17,0h0c-.92,0-1.85,0-2.78,0h-1c-2,0-4.11.09-6.18.17l-.62,0q-7,.27-14.18.83l-.74.06c-2,.17-4.12.36-6.19.56l-1.71.18q-2.7.27-5.43.59l-1.94.23q-2.79.34-5.61.74l-1.66.22q-7.29,1-14.79,2.37l-2,.37c-1.81.34-3.63.68-5.46,1l-2.61.52c-1.67.34-3.35.7-5,1.06l-2.72.59c-1.77.39-3.54.8-5.33,1.22l-2.42.56c-2.58.62-5.17,1.26-7.79,1.93h0s-.76.43-2.26,1.18c-2.2,1.11-6,2.9-11.2,5-1,.42-2.12.86-3.27,1.3a257,257,0,0,1-25.58,8.45l-.06,0-3.49.93-.74.19-1.51.39-.15,0-2.19.54-1.4.34-2.55.6-.76.17-3.47.77-.41.09-.09,0c-48.26,10.26-123,13.88-213-23.06l0,0a506.93,506.93,0,0,1-89.79-48.45c-18.37-12.32-36.72-20.6-54.85-25.37l-.7-.18c-1-.26-2-.52-3-.76l-.43-.1q-2.79-.65-5.57-1.19l-1.14-.22c-.84-.16-1.68-.3-2.52-.45l-1.61-.26-2.34-.36c-1.17-.17-2.34-.32-3.5-.46l-1.08-.12-.48,0-.38,0c-.75-.08-1.5-.16-2.25-.22l-1.52-.14-.47,0c-.92-.07-1.83-.13-2.75-.18l-1.26-.07h-.15l-.81,0c-1,0-1.91-.08-2.86-.1l-.91,0h-5.05c-1.25,0-2.49.07-3.74.12h-.37l-1.15.06-2.8.18-.56,0-.91.07c-1.36.11-2.71.24-4.06.38l-.8.1c-1.11.13-2.23.27-3.34.42l-1.21.17c-1.17.17-2.34.36-3.51.56l-.59.09c-1.33.24-2.66.49-4,.76l-1.15.24c-1,.21-2,.43-3.06.67l-1.12.25c-1.31.31-2.62.64-3.92,1l-.81.22c-1.07.29-2.14.59-3.2.9l-1.25.37c-1.08.33-2.16.66-3.23,1l-.75.24c-1.28.42-2.55.86-3.83,1.31l-1.18.43c-1,.34-1.91.7-2.86,1.06l-1.19.46c-1.25.49-2.5,1-3.75,1.51l-.86.37c-1,.42-2,.85-3,1.3l-1.3.58c-1,.44-1.94.9-2.91,1.36l-.93.43c-1.21.59-2.41,1.19-3.62,1.8l-1.25.64q-1.3.68-2.61,1.38l-1.27.68c-1.18.64-2.36,1.3-3.53,2l-1,.57c-.91.52-1.81,1.06-2.71,1.59l-1.38.84-2.57,1.59-1.1.69c-1.13.72-2.26,1.46-3.38,2.21-.45.29-.9.6-1.34.9-.77.52-1.54,1-2.3,1.57l-1.39,1c-1.07.75-2.13,1.5-3.19,2.28-.41.29-.81.6-1.22.9l-2.36,1.76-1.47,1.13-2.18,1.7-1.3,1c-1,.83-2.07,1.68-3.1,2.53l-1.46,1.21-1.95,1.66-1.5,1.29c-.81.7-1.62,1.42-2.43,2.13l-1.88,1.7-2,1.8L571.48,155l-1.78,1.69-1.48,1.42-2.81,2.77-1.57,1.58-1.59,1.63-1.61,1.66-1.73,1.83-2.49,2.68-1.52,1.66c-.55.6-1.1,1.22-1.64,1.83s-.93,1-1.39,1.57c-.8.91-1.6,1.83-2.39,2.76l-1.74,2c-.56.66-1.12,1.34-1.68,2l-1.23,1.48c-.56.69-1.13,1.38-1.69,2.08-.38.46-.75.93-1.12,1.4q-1.51,1.91-3,3.82l-1,1.34-1.72,2.26-1,1.35q-2.88,3.87-5.68,7.83l-.89,1.26-1.73,2.49-.66,1c-1.12,1.65-2.24,3.31-3.34,5l-.6.91L520.6,217c-.23.35-.46.71-.68,1.07q-2.79,4.36-5.47,8.84l-.57.95c-.58,1-1.15,1.95-1.73,2.93-.09.17-.19.34-.29.51-1.2,2.05-2.38,4.13-3.54,6.21l-.2.35c-.57,1-1.14,2.06-1.7,3.1l-.43.78q-2.61,4.83-5.11,9.75l-.33.64-1.65,3.31-.06.12q-2.58,5.24-5,10.56l-.24.52q-2.38,5.22-4.62,10.53l-.16.36q-3.07,7.27-5.87,14.69l-.12.33q-2.08,5.52-4,11.12l-.05.12q-2.6,7.58-4.91,15.22l0,.19q-4,13.41-7.11,27l0,.19c-15.78,70-11.76,142,20.56,197.15l42.33,122.31S617.77,832.4,600.2,972a12.78,12.78,0,0,0-1.82,6.56V1132a31.49,31.49,0,0,0,31.4,31.4H787.26c-.27,4.16-.43,8.36-.43,12.59l9.92,91.35s-56.5,29.85,7.86,72.36h0l8.3,76.4c-4.63,2.91-47.49,31.83,7.49,72.11l.37.26,7.14,65.69c-7,5.12-40.21,33.17,7.69,71.52l.08.06,4.39,40.37c0,9.08.24,18.55.74,28.26-4.38,3.34-39.17,32.1,6.36,72a28.35,28.35,0,0,0,2.56,2c15.56,79.41,52,152.94,123.51,152.94h0c82.72,0,120.92-107.92,132.74-203.74,5.75-6.87,51.13-63.4,8.47-89,0,0-.71.43-2,1.2l5.41-52,.7-.28s59.74-62.41,9.93-89.68l-1.34.73,5.35-51.48c12-12.59,54.61-62.23,9-86.17l6.18-59.38s72.42-62.41,12-89.68l-2.83,1.26,2.83-27.19q0-6.35-.43-12.59H1318.9a34.83,34.83,0,0,0,34.73-34.72V978.6a12.79,12.79,0,0,0-2.17-7.13c.92-8.67,2.12-17.62,3.66-26.82l.07,0c10.23-61.44,35.1-134.16,87.45-212.59C1569,542.78,1535.72,426.36,1522.34,394.79Z" transform="translate(0.5 0.5)"/></g></svg>