<?xml version="1.0" encoding="utf-8"?>
<!-- Generator: Adobe Illustrator 22.0.0, SVG Export Plug-In . SVG Version: 6.00 Build 0)  -->
<svg version="1.1" id="Layer_1" xmlns="http://www.w3.org/2000/svg" xmlns:xlink="http://www.w3.org/1999/xlink" x="0px" y="0px"
	 viewBox="0 0 2001 2001" style="enable-background:new 0 0 2001 2001;" xml:space="preserve">
<style type="text/css">
	.st0{fill:#37B772;stroke:#FFFFFF;stroke-miterlimit:10;}
	.st1{fill:#37B772;}
	.st2{fill:#F4DA6E;stroke:#231F20;stroke-miterlimit:10;}
	.st3{fill:#E586B7;stroke:#231F20;stroke-miterlimit:10;}
	.st4{fill:#FFFFFF;}
	.st5{fill:#D3D2D1;}
	.st6{fill:#BEE7F9;}
	.st7{fill:#8C8B8B;}
	.st8{fill:none;stroke:#050606;stroke-width:2;stroke-miterlimit:10;}
	.st9{fill:#5B5959;}
</style>
<title>Orthodontics</title>
<g id="Layer_2_1_">
	<rect x="0.5" y="0.5" class="st0" width="2000" height="2000"/>
	<rect x="0.5" y="0.5" class="st1" width="2000" height="2000"/>
</g>
<g id="Layer_1_1_">
	<rect x="0.5" y="1245.8" class="st2" width="2000" height="754.7"/>
	<path class="st3" d="M50.1,1400c49.6-56.8,192.8,168.4,223.2,99.4s62.9-200.9,96.9-188.7s-13.7,347,122.3,178.6
		s168.5-156.3,209-170.4s125.8,290.2,211.3,93.3s70.7-2,71.9,50.7s136.8,22.3,232.2-97.4s107.6,4.1,150.2,66.4s154.2,100,159.1,51.3
		s39.8-166.4,68-174.5s16.5,121.8,26.6,146.1s93.3,48.7,229.3-73c64.8-58,115.3-44.2,150.5-13.7v-263.8
		c-89.4-5.2-223.5,7.6-223.5,7.6l-21.7,24.3l-95.7-98.4c0,0-57.1,88.3-219.5,56.3s-286.1,0-286.1,0v9.7l-66.6,9.9
		c0,0-101.8-62.6-106.1-74.8s-93.1,85.2-188.5,44.6s-249.6-8.1-249.6-8.1l-34.9,75.1l-186.3-111.6c0,0,86.4,91.7-52.8,60.9
		s-268.8,0-268.8,0v339C16,1431.4,33.3,1419.2,50.1,1400z"/>
	<path class="st4" d="M108.2,883.8c0,0,58.9,111.2,35.4,192.6s-37.9,185.1,11.8,256.1s87.3,92.2,98.9,93s24.4-14.7,14.1-47.5
		s-45.2-162.9,7-223.1s103.1-79,155.5,6.1s-2.1,198-12.5,243.7s45.7,23.8,69.7,9.3c24-14.5,99.6-46.3,89.9-267.6
		c0,0-41.8-99.7,42-225.3s42.3-194,42.3-194s-36-158.7-204.4-115.5c0,0-87.1,48.9-202.9-28.8S24.2,712.5,84.4,815.2L108.2,883.8z"/>
	<path class="st5" d="M268.3,1377.7c-10.3-32.8-45.2-162.9,7-223.1s103.1-79,155.5,6.1s-2.1,198-12.5,243.6s45.7,23.8,69.7,9.3
		s99.6-46.3,89.9-267.6c0,0-39.8-94.9,36.1-216.1c-139.1,82.7-93.1,149-90,158.7c3.7,11.6,23.4,142.7-73.3-7.5
		s-196.5-11.9-196.5-11.9s-60.7,118.3-56.3-13.8c2.9-89.5-46.1-129.9-78.1-146.6c15.8,37.5,40.3,109.8,23.7,167.3
		c-23.5,81.4-37.9,185.1,11.8,256.1s87.3,92.2,98.9,93S278.5,1410.5,268.3,1377.7z"/>
	<path class="st5" d="M457.8,611.5c0,0-87.1,48.9-202.9-28.8c-82.9-55.6-165.3,34.9-183.4,128.5c20.7-46.7,56.8-126.7,110.6-126.7
		c91.7,0,122.8,67.4,184.7,65.2s114.8-11.1,147.3-26.7c6.9-3.3,10.2-10,11-18.6C505.5,603.1,483.2,605,457.8,611.5z"/>
	<path class="st4" d="M722.7,883.8c0,0,58.8,111.1,35.4,192.6s-37.9,185.1,11.8,256.1s87.3,92.2,98.9,93s24.4-14.7,14.1-47.5
		s-45.2-162.9,7-223.1s103.1-79,155.5,6.1c52.4,85.1-2.2,198-12.5,243.7s45.7,23.8,69.7,9.3s99.6-46.3,89.9-267.6
		c0,0-41.8-99.7,42-225.3s42.3-194,42.3-194s-36-158.7-204.4-115.5c0,0-87.1,48.9-202.9-28.8S638.7,712.5,698.9,815.2L722.7,883.8z"
		/>
	<path class="st5" d="M882.7,1377.7c-10.3-32.8-45.2-162.9,7-223.1s103.1-79,155.5,6.1s-2.2,198-12.5,243.6s45.7,23.8,69.7,9.3
		s99.6-46.3,89.9-267.6c0,0-39.8-94.9,36.1-216.1c-139.1,82.7-93.1,149-90,158.7c3.7,11.6,23.4,142.7-73.3-7.5
		s-196.5-11.9-196.5-11.9s-60.7,118.3-56.3-13.8c3-89.5-46.1-129.9-78.1-146.6c15.8,37.5,40.3,109.8,23.7,167.3
		c-23.4,81.4-37.9,185.1,11.8,256.1s87.3,92.2,98.9,93S893,1410.5,882.7,1377.7z"/>
	<path class="st5" d="M1072.3,611.5c0,0-87.1,48.9-202.8-28.8c-82.9-55.6-165.3,34.9-183.4,128.5c20.6-46.7,56.7-126.7,110.6-126.7
		c91.7,0,122.8,67.4,184.6,65.2s114.8-11.1,147.3-26.7c6.9-3.3,10.2-10,11-18.6C1120,603.1,1097.6,605,1072.3,611.5z"/>
	<path class="st4" d="M1335.4,894.2c0,0,58.9,111.2,35.4,192.6s-37.9,185.1,11.8,256.1s87.3,92.2,98.9,93s24.4-14.7,14.1-47.5
		s-45.2-162.9,7-223.1s103.1-79,155.5,6.1s-2.1,198-12.5,243.7s45.7,23.8,69.7,9.3s99.6-46.3,89.9-267.6c0,0-41.8-99.7,42-225.3
		s42.3-194,42.3-194s-36-158.7-204.4-115.5c0,0-87.1,48.9-202.9-28.8S1251.5,723,1311.7,825.7L1335.4,894.2z"/>
	<path class="st5" d="M1495.5,1388.1c-10.3-32.8-45.2-162.9,7-223.1s103.1-79,155.5,6.1s-2.1,198-12.5,243.7s45.7,23.8,69.7,9.3
		s99.6-46.3,89.9-267.6c0,0-39.8-94.9,36.1-216.1c-139.1,82.7-93.1,149-90,158.7c3.7,11.6,23.4,142.7-73.3-7.5
		s-196.5-11.9-196.5-11.9s-60.7,118.3-56.3-13.8c3-89.5-46.1-129.9-78.1-146.6c15.8,37.5,40.3,109.8,23.7,167.3
		c-23.5,81.4-37.9,185.1,11.8,256.1s87.3,92.2,98.9,93S1505.8,1421,1495.5,1388.1z"/>
	<path class="st5" d="M1685.1,622c0,0-87.1,48.9-202.9-28.8c-82.8-55.6-165.3,34.9-183.4,128.5c20.7-46.7,56.8-126.7,110.7-126.7
		c91.7,0,122.8,67.4,184.7,65.2s114.7-11.1,147.3-26.7c6.9-3.3,10.2-10,11-18.6C1732.7,613.5,1710.4,615.5,1685.1,622z"/>
	<path class="st6" d="M293.7,746.1H440c29,0,52.4,23.5,52.4,52.4v57.4c0,29-23.5,52.4-52.4,52.4H293.7c-29,0-52.4-23.5-52.4-52.4
		v-57.4C241.2,769.6,264.7,746.1,293.7,746.1z"/>
	<path class="st6" d="M908.2,757h146.3c29,0,52.4,23.5,52.4,52.4v57.4c0,29-23.5,52.4-52.4,52.4H908.2c-29,0-52.4-23.5-52.4-52.4
		v-57.4C855.7,780.4,879.2,757,908.2,757z"/>
	<path class="st6" d="M1535.9,745.7h146.3c29,0,52.4,23.5,52.4,52.4v57.4c0,29-23.5,52.4-52.4,52.4h-146.3
		c-29,0-52.4-23.5-52.4-52.4v-57.4C1483.5,769.1,1507,745.7,1535.9,745.7z"/>
	<rect x="1636" y="775.4" class="st7" width="47.3" height="102.8"/>
	<rect x="283.9" y="775.4" class="st7" width="47.3" height="102.8"/>
	<rect x="393.7" y="775.8" class="st7" width="47.3" height="102.8"/>
	<rect x="898.4" y="786.3" class="st7" width="47.3" height="102.8"/>
	<rect x="1008.2" y="786.7" class="st7" width="47.3" height="102.8"/>
	<rect x="1526.1" y="775" class="st7" width="47.3" height="102.8"/>
	<path class="st8" d="M108.2,883.8c0,0,58.9,111.2,35.4,192.6s-37.9,185.1,11.8,256.1s87.3,92.2,98.9,93s24.4-14.7,14.1-47.5
		s-45.2-162.9,7-223.1s103.1-79,155.5,6.1s-2.1,198-12.5,243.7s45.7,23.8,69.7,9.3c24-14.5,99.6-46.3,89.9-267.6
		c0,0-41.8-99.7,42-225.3s42.3-194,42.3-194s-36-158.7-204.4-115.5c0,0-87.1,48.9-202.9-28.8S24.2,712.5,84.4,815.2L108.2,883.8z"/>
	<path class="st8" d="M722.7,883.8c0,0,58.8,111.1,35.4,192.6s-37.9,185.1,11.8,256.1s87.3,92.2,98.9,93s24.4-14.7,14.1-47.5
		s-45.2-162.9,7-223.1s103.1-79,155.5,6.1c52.4,85.1-2.2,198-12.5,243.7s45.7,23.8,69.7,9.3s99.6-46.3,89.9-267.6
		c0,0-41.8-99.7,42-225.3s42.3-194,42.3-194s-36-158.7-204.4-115.5c0,0-87.1,48.9-202.9-28.8S638.7,712.5,698.9,815.2L722.7,883.8z"
		/>
	<path class="st8" d="M1335.4,894.2c0,0,58.9,111.2,35.4,192.6s-37.9,185.1,11.8,256.1s87.3,92.2,98.9,93s24.4-14.7,14.1-47.5
		s-45.2-162.9,7-223.1s103.1-79,155.5,6.1s-2.1,198-12.5,243.7s45.7,23.8,69.7,9.3s99.6-46.3,89.9-267.6c0,0-41.8-99.7,42-225.3
		s42.3-194,42.3-194s-36-158.7-204.4-115.5c0,0-87.1,48.9-202.9-28.8S1251.5,723,1311.7,825.7L1335.4,894.2z"/>
	<path class="st9" d="M0.5,746.1v38l11.6,2.6c814.7,182.2,1988.4,5.9,1988.4,5.9V757C667.2,947.8,0.5,746.1,0.5,746.1z"/>
</g>
</svg>
