<?xml version="1.0" encoding="utf-8"?>
<!-- Generator: Adobe Illustrator 22.0.0, SVG Export Plug-In . SVG Version: 6.00 Build 0)  -->
<svg version="1.1" id="Layer_1" xmlns="http://www.w3.org/2000/svg" xmlns:xlink="http://www.w3.org/1999/xlink" x="0px" y="0px"
	 viewBox="0 0 471.8 447" style="enable-background:new 0 0 471.8 447;" xml:space="preserve">
<style type="text/css">
	.st0{display:none;}
	.st1{display:inline;fill:#3879BE;}
	.st2{fill:#FFFFFF;}
</style>
<g id="Layer_2_1_" class="st0">
	<rect class="st1" width="471.8" height="447"/>
</g>
<title>Profile</title>
<polygon class="st2" points="138.3,328.7 90,328.7 90,280.4 49.8,280.4 49.8,328.7 1.5,328.7 1.5,368.9 49.8,368.9 49.8,417.2 
	90,417.2 90,368.9 138.3,368.9 "/>
<path class="st2" d="M365.2,256.7c-53.9,58.4-138.1,72-206.1,39c8.1,15.2,12.7,32.6,12.7,51c0,45.3-27.8,84.1-67.2,100.3h367.2
	C471.8,367.4,429.4,297.4,365.2,256.7z"/>
<g>
	<path class="st2" d="M235.9,274.6c71.8,0,130.7-55.1,136.7-125.3H99.2C105.2,219.5,164.1,274.6,235.9,274.6z"/>
	<path class="st2" d="M371.3,114.6c0.2,1,0.3,1.9,0.5,2.9C371.6,116.6,371.5,115.6,371.3,114.6z"/>
	<path class="st2" d="M371.2,114L371.2,114c0,0.2,0.1,0.4,0.1,0.6C371.3,114.4,371.2,114.2,371.2,114z"/>
	<path class="st2" d="M235.9,0C168,0,111.7,49.3,100.6,114h270.6C360.1,49.3,303.8,0,235.9,0z M281.8,76.5h-30.6v30.6h-30.6V76.5
		H190V45.9h30.6V15.4h30.6v30.6h30.6V76.5z"/>
	<path class="st2" d="M100.6,114c0,0.2-0.1,0.4-0.1,0.6C100.5,114.4,100.6,114.2,100.6,114L100.6,114z"/>
	<path class="st2" d="M99.9,118.6c-0.2,1.3-0.3,2.6-0.5,3.9C99.6,121.1,99.7,119.8,99.9,118.6z"/>
	<path class="st2" d="M100.5,114.6c-0.2,1-0.3,1.9-0.5,2.9C100.2,116.6,100.3,115.6,100.5,114.6z"/>
	<path class="st2" d="M100.1,117.6c0,0.3-0.1,0.7-0.1,1C100,118.2,100,117.9,100.1,117.6z"/>
	<path class="st2" d="M371.9,118.6c0.2,1.3,0.3,2.6,0.5,3.9C372.2,121.1,372.1,119.8,371.9,118.6z"/>
	<path class="st2" d="M371.7,117.6c0,0.3,0.1,0.7,0.1,1C371.8,118.2,371.8,117.9,371.7,117.6z"/>
</g>
</svg>
