<?xml version="1.0" encoding="utf-8"?>
<!-- Generator: Adobe Illustrator 22.0.0, SVG Export Plug-In . SVG Version: 6.00 Build 0)  -->
<svg version="1.1" id="Layer_1" xmlns="http://www.w3.org/2000/svg" xmlns:xlink="http://www.w3.org/1999/xlink" x="0px" y="0px"
	 viewBox="0 0 450 550" style="enable-background:new 0 0 450 550;" xml:space="preserve">
<style type="text/css">
	.st0{display:none;fill:#8ED7F0;}
	.st1{fill:#5ABA4A;}
	.st2{fill:#BA6B29;}
	.st3{fill:#E62628;}
</style>
<rect class="st0" width="450" height="550"/>
<ellipse class="st1" cx="225" cy="466.4" rx="223.1" ry="71.7"/>
<ellipse class="st2" cx="225" cy="455.2" rx="158.8" ry="53.9"/>
<g>
	<path class="st3" d="M225,8.3L225,8.3L225,8.3c-111.1,0-180.5,124.1-125,223.5l0,0l125,223.5l125-223.5l0,0
		C405.5,132.4,336.1,8.3,225,8.3z M225,218.5c-38.8,0-70.2-32.8-70.2-73.2c0-40.5,31.4-73.2,70.2-73.2s70.2,32.8,70.2,73.2
		C295.2,185.8,263.8,218.5,225,218.5z"/>
	<ellipse class="st3" cx="225" cy="145.3" rx="53.1" ry="55.4"/>
</g>
</svg>
