<?xml version="1.0" encoding="utf-8"?>
<!-- Generator: Adobe Illustrator 22.0.0, SVG Export Plug-In . SVG Version: 6.00 Build 0)  -->
<svg version="1.1" id="Layer_1" xmlns="http://www.w3.org/2000/svg" xmlns:xlink="http://www.w3.org/1999/xlink" x="0px" y="0px"
	 viewBox="0 0 287.7 355.8" style="enable-background:new 0 0 287.7 355.8;" xml:space="preserve">
<style type="text/css">
	.st0{fill:#58BA4A;}
	.st1{fill:#B96A28;}
	.st2{fill:#E82025;}
</style>
<ellipse class="st0" cx="143.9" cy="311" rx="143.9" ry="44.8"/>
<ellipse class="st1" cx="143.9" cy="304" rx="102.4" ry="33.6"/>
<title>Address</title>
<g>
	<path class="st2" d="M143.9,24.9L143.9,24.9L143.9,24.9c-71.6,0-116.4,77.5-80.6,139.6l0,0L143.9,304l80.6-139.6l0,0
		C260.3,102.4,215.5,24.9,143.9,24.9z M143.9,156.2c-25,0-45.3-20.5-45.3-45.8c0-25.3,20.3-45.8,45.3-45.8s45.3,20.5,45.3,45.8
		C189.2,135.7,168.9,156.2,143.9,156.2z"/>
	<ellipse class="st2" cx="143.9" cy="110.5" rx="34.3" ry="34.6"/>
</g>
</svg>
