<svg xmlns="http://www.w3.org/2000/svg" viewBox="0 0 405.75 383.69"><defs><style>.cls-1{fill:#fff;}</style></defs><title>Appoint</title><g id="Layer_1" data-name="Layer 1"><path class="cls-1" d="M393.41,111.16h-17.9v29.55a20.14,20.14,0,0,1-20.14,20.14h-15a20.14,20.14,0,0,1-20.14-20.14V111.16H110v29.55a20.14,20.14,0,0,1-20.14,20.14h-15a20.14,20.14,0,0,1-20.14-20.14V111.16H31.17A21.76,21.76,0,0,0,9.41,132.92V438.7a21.76,21.76,0,0,0,21.76,21.76H393.41a21.76,21.76,0,0,0,21.76-21.76V132.92A21.76,21.76,0,0,0,393.41,111.16Zm7.42,323.43a14.11,14.11,0,0,1-14.11,14.11H36.83a14.11,14.11,0,0,1-14.11-14.11V197H400.83Z" transform="translate(-9.41 -76.77)"/><rect class="cls-1" x="45.28" y="159.45" width="57.33" height="57.33"/><rect class="cls-1" x="177.02" y="159.45" width="57.33" height="57.33"/><rect class="cls-1" x="308.76" y="159.45" width="57.33" height="57.33"/><rect class="cls-1" x="45.28" y="265.89" width="57.33" height="57.33"/><rect class="cls-1" x="177.02" y="265.89" width="57.33" height="57.33"/><rect class="cls-1" x="308.76" y="265.89" width="57.33" height="57.33"/><rect class="cls-1" x="52.78" width="40.28" height="68.78" rx="20.14" ry="20.14"/><rect class="cls-1" x="318.32" width="40.28" height="68.78" rx="20.14" ry="20.14"/></g></svg>