<?xml version="1.0" encoding="utf-8"?>
<!-- Generator: Adobe Illustrator 22.0.0, SVG Export Plug-In . SVG Version: 6.00 Build 0)  -->
<svg version="1.1" id="Layer_1" xmlns="http://www.w3.org/2000/svg" xmlns:xlink="http://www.w3.org/1999/xlink" x="0px" y="0px"
	 viewBox="0 0 471.8 447" style="enable-background:new 0 0 471.8 447;" xml:space="preserve">
<style type="text/css">
	.st0{display:none;}
	.st1{display:inline;fill:#3879BE;}
	.st2{display:none;fill:#FFFFFF;}
	.st3{display:none;fill:#FFFFFF;stroke:#000000;stroke-miterlimit:10;}
	.st4{fill:#FFFFFF;}
</style>
<g id="Layer_2_1_" class="st0">
	<rect class="st1" width="471.8" height="447"/>
</g>
<title>Profile</title>
<path class="st2" d="M301,31H57c-6.6,0-12,5.4-12,12v370c0,6.6,5.4,12,12,12h244c6.6,0,12-5.4,12-12V43C313,36.4,307.6,31,301,31z
	 M173.5,72.2h111.7c3.9,0,7.1,3.2,7.1,7.1s-3.2,7.1-7.1,7.1H173.5c-3.9,0-7.1-3.2-7.1-7.1S169.6,72.2,173.5,72.2z M173.5,101.2
	h111.7c3.9,0,7.1,3.2,7.1,7.1s-3.2,7.1-7.1,7.1H173.5c-3.9,0-7.1-3.2-7.1-7.1S169.6,101.2,173.5,101.2z M292.3,137.3
	c0,3.9-3.2,7.1-7.1,7.1H173.5c-3.9,0-7.1-3.2-7.1-7.1s3.2-7.1,7.1-7.1h111.7C289.1,130.2,292.3,133.4,292.3,137.3z M69.7,75.2
	c0-6.6,5.4-12,12-12h62.5c6.6,0,12,5.4,12,12v58.3c0,6.6-5.4,12-12,12H81.7c-6.6,0-12-5.4-12-12V75.2z M64,164c0-2.5,2-4.5,4.5-4.5
	h219.3c2.5,0,4.5,2,4.5,4.5v5.1c0,2.5-2,4.5-4.5,4.5H68.5c-2.5,0-4.5-2-4.5-4.5V164z M64,193.3c0-2.5,2-4.5,4.5-4.5h219.3
	c2.5,0,4.5,2,4.5,4.5v5.1c0,2.5-2,4.5-4.5,4.5H68.5c-2.5,0-4.5-2-4.5-4.5V193.3z M64,222.6c0-2.5,2-4.5,4.5-4.5h219.3
	c2.5,0,4.5,2,4.5,4.5v5.1c0,2.5-2,4.5-4.5,4.5H68.5c-2.5,0-4.5-2-4.5-4.5V222.6z M64,251.9c0-2.5,2-4.5,4.5-4.5h219.3
	c2.5,0,4.5,2,4.5,4.5v5.1c0,2.5-2,4.5-4.5,4.5H68.5c-2.5,0-4.5-2-4.5-4.5V251.9z M64,281.2c0-2.5,2-4.5,4.5-4.5h219.3
	c2.5,0,4.5,2,4.5,4.5v5.1c0,2.5-2,4.5-4.5,4.5H68.5c-2.5,0-4.5-2-4.5-4.5V281.2z M64,310.5c0-2.5,2-4.5,4.5-4.5h219.3
	c2.5,0,4.5,2,4.5,4.5v5.1c0,2.5-2,4.5-4.5,4.5H68.5c-2.5,0-4.5-2-4.5-4.5V310.5z M64,339.8c0-2.5,2-4.5,4.5-4.5h219.3
	c2.5,0,4.5,2,4.5,4.5v5.1c0,2.5-2,4.5-4.5,4.5H68.5c-2.5,0-4.5-2-4.5-4.5V339.8z M293.1,374.2c0,2.5-2,4.5-4.5,4.5H69.4
	c-2.5,0-4.5-2-4.5-4.5v-5.1c0-2.5,2-4.5,4.5-4.5h219.3c2.5,0,4.5,2,4.5,4.5v5.1H293.1z"/>
<path class="st3" d="M-164.2,33.3l-33.1-29.8c-15.4-13.8-33.7-18.6-40.8-10.7l-7.7,8.5l-276.6,308.1l-8,53.7l-8,53.7l52.5-13.7
	l52.5-13.7l276.6-308.1l7.7-8.5C-142.1,64.8-148.8,47.2-164.2,33.3z"/>
<polygon class="st4" points="312.2,66 124.1,280.3 108.2,328.5 92.5,376.7 137.8,354.9 183.3,333.2 371.3,118.8 "/>
<path class="st4" d="M458.5,0H126.8C57.1,0-0.1,55.4,0,123.1v311c0,7.1,6,12.9,13.3,12.9h445.3c7.3,0,13.3-5.8,13.2-12.9V12.9
	C471.8,5.8,465.8,0,458.5,0z M433.7,395.8c0,6.9-5.6,12.5-12.6,12.5H50.8c-7,0-12.6-5.6-12.6-12.4V152.5c0-64.9,54.5-118,121-118
	H421c7,0,12.6,5.6,12.6,12.4v348.9H433.7z"/>
</svg>
