<?xml version="1.0" encoding="utf-8"?>
<!-- Generator: Adobe Illustrator 22.0.0, SVG Export Plug-In . SVG Version: 6.00 Build 0)  -->
<svg version="1.1" id="Layer_1" xmlns="http://www.w3.org/2000/svg" xmlns:xlink="http://www.w3.org/1999/xlink" x="0px" y="0px"
	 viewBox="0 0 600 100" style="enable-background:new 0 0 600 100;" xml:space="preserve">
<style type="text/css">
	.st0{fill:#03352D;}
	.st1{font-family:'Garamond-Bold';}
	.st2{font-size:38.8876px;}
	.st3{fill:#040404;}
</style>
<text transform="matrix(1 0 0 1 106.2656 37.3989)" class="st0 st1 st2">Dental Unit</text>
<text transform="matrix(1 0 0 1 106.2656 84.0989)" class="st0 st1 st2">Karapitiya Teaching Hospital</text>
<path class="st3" d="M29.5,96.2c0,0,3.1-25,14-38.4s17.1,5.2,18.2,8.3c1.1,3.1,6.5,11.2,8.6,30.1c0,0,9-2.7,10.6-29.7
	c0,0,0-13,9.2-23.8s3.6-36.2-9.4-39.1S61.1,1.8,51.2,8.8c0,0,3.6,4,15,4.5c0,0-11.2,3.8-22.2-4.7s-29.4-8.8-35.3,4s-0.7,36,4.5,38.2
	s6.3,29.2,6.7,31c0.4,1.8,5.4,12.6,8.6,14.4L29.5,96.2z"/>
</svg>
