<?xml version="1.0" encoding="utf-8"?>
<!-- Generator: Adobe Illustrator 22.0.0, SVG Export Plug-In . SVG Version: 6.00 Build 0)  -->
<svg version="1.1" id="Layer_1" xmlns="http://www.w3.org/2000/svg" xmlns:xlink="http://www.w3.org/1999/xlink" x="0px" y="0px"
	 viewBox="0 0 471.8 447" style="enable-background:new 0 0 471.8 447;" xml:space="preserve">
<style type="text/css">
	.st0{display:none;fill:#49A6DD;stroke:#73BF44;stroke-miterlimit:10;}
	.st1{fill:#FFFFFF;}
</style>
<rect class="st0" width="471.8" height="447"/>
<title>Profile</title>
<path class="st1" d="M365.2,256.7c-65.9,71.4-177.3,75.9-248.7,9.9c-3.4-3.2-6.8-6.5-9.9-9.9C42.4,297.4,0,367.4,0,447h471.8
	C471.8,367.4,429.4,297.4,365.2,256.7z"/>
<g>
	<path class="st1" d="M235.9,274.5c71.8,0,130.7-55.1,136.7-125.3H99.1C105.2,219.4,164.1,274.5,235.9,274.5z"/>
	<path class="st1" d="M371.3,114.6c0.2,1,0.3,1.9,0.5,2.9C371.6,116.6,371.4,115.6,371.3,114.6z"/>
	<path class="st1" d="M371.2,114L371.2,114c0,0.2,0.1,0.4,0.1,0.6C371.2,114.4,371.2,114.2,371.2,114z"/>
	<path class="st1" d="M235.9,0C168,0,111.7,49.3,100.6,114h270.6C360.1,49.3,303.8,0,235.9,0z M281.8,76.5h-30.6v30.6h-30.6V76.5
		H190V45.9h30.6V15.3h30.6v30.6h30.6V76.5z"/>
	<path class="st1" d="M100.6,114c0,0.2-0.1,0.4-0.1,0.6C100.5,114.4,100.6,114.2,100.6,114L100.6,114z"/>
	<path class="st1" d="M99.9,118.5c-0.2,1.3-0.3,2.6-0.5,3.9C99.6,121.1,99.7,119.8,99.9,118.5z"/>
	<path class="st1" d="M100.5,114.6c-0.2,1-0.3,1.9-0.5,2.9C100.2,116.6,100.3,115.6,100.5,114.6z"/>
	<path class="st1" d="M100,117.5c0,0.3-0.1,0.7-0.1,1C99.9,118.2,100,117.9,100,117.5z"/>
	<path class="st1" d="M371.9,118.5c0.2,1.3,0.3,2.6,0.5,3.9C372.2,121.1,372.1,119.8,371.9,118.5z"/>
	<path class="st1" d="M371.7,117.5c0,0.3,0.1,0.7,0.1,1C371.8,118.2,371.8,117.9,371.7,117.5z"/>
</g>
</svg>
