<?xml version="1.0" encoding="utf-8"?>
<!-- Generator: Adobe Illustrator 22.0.0, SVG Export Plug-In . SVG Version: 6.00 Build 0)  -->
<svg version="1.1" id="Layer_1" xmlns="http://www.w3.org/2000/svg" xmlns:xlink="http://www.w3.org/1999/xlink" x="0px" y="0px"
	 viewBox="0 0 450 550" style="enable-background:new 0 0 450 550;" xml:space="preserve">
<style type="text/css">
	.st0{display:none;fill:#8FD7EF;}
	.st1{fill:#E0BB5D;stroke:#231F20;stroke-width:4;stroke-miterlimit:10;}
	.st2{fill:#E2B03A;stroke:#231F20;stroke-width:4;stroke-miterlimit:10;}
	.st3{fill:#D3D1D0;stroke:#231F20;stroke-width:4;stroke-miterlimit:10;}
	.st4{fill:#231F20;}
	.st5{font-family:'ArialMT';}
	.st6{font-size:190.785px;}
</style>
<rect class="st0" width="450" height="550"/>
<path class="st1" d="M36.1,524.8V42.2c0-9,7.3-16.3,16.3-16.3h261.1c9,0,16.3,7.3,16.3,16.3v482.6c0,9-7.3,16.3-16.3,16.3H52.3
	C43.4,541,36.1,533.8,36.1,524.8z"/>
<path class="st2" d="M36.1,42.2v482.6c0,7.7,5.5,14.4,13.1,15.9l78-128.4l69.3-114c5.5-9.1,5.5-20.4,0-29.5l-69.3-114l-78-128.5
	C41.5,27.8,36.1,34.5,36.1,42.2z"/>
<path class="st3" d="M428.1,34v407c0,12.1-8,22-17.8,22H214.5c-9.8,0-17.8-9.8-17.8-22V34c0-12.1,8-22,17.8-22h195.8
	C420.1,12,428.1,21.8,428.1,34z"/>
<text transform="matrix(1 0 0 1 211.3544 283.4853)" class="st4 st5 st6">@</text>
</svg>
