<?xml version="1.0" encoding="utf-8"?>
<!-- Generator: Adobe Illustrator 22.0.0, SVG Export Plug-In . SVG Version: 6.00 Build 0)  -->
<svg version="1.1" id="Layer_1" xmlns="http://www.w3.org/2000/svg" xmlns:xlink="http://www.w3.org/1999/xlink" x="0px" y="0px"
	 viewBox="0 0 450 550" style="enable-background:new 0 0 450 550;" xml:space="preserve">
<style type="text/css">
	.st0{display:none;fill:#8FD7EF;}
	.st1{fill:#302C2B;stroke:#231F20;stroke-miterlimit:10;}
	.st2{fill:#FFFFFF;}
	.st3{fill:#706F6F;stroke:#231F20;stroke-miterlimit:10;}
</style>
<rect class="st0" width="450" height="550"/>
<path class="st1" d="M117.3,5.2h215.5c16.4,0,29.8,13.3,29.8,29.8v480c0,16.4-13.3,29.8-29.8,29.8H117.3
	c-16.4,0-29.8-13.3-29.8-29.8V35C87.5,18.5,100.8,5.2,117.3,5.2z"/>
<rect x="106.5" y="57.5" class="st2" width="238.4" height="460.8"/>
<path class="st2" d="M161.9,529.3h129.3c1.2,0,2.1,0.9,2.1,2.1l0,0c0,1.2-0.9,2.1-2.1,2.1H161.9c-1.2,0-2.1-0.9-2.1-2.1l0,0
	C159.8,530.2,160.7,529.3,161.9,529.3z"/>
<path class="st2" d="M161.9,42.3h129.3c1.2,0,2.1,0.9,2.1,2.1l0,0c0,1.2-0.9,2.1-2.1,2.1H161.9c-1.2,0-2.1-0.9-2.1-2.1l0,0
	C159.8,43.3,160.7,42.3,161.9,42.3z"/>
<circle class="st2" cx="121.1" cy="36" r="8.4"/>
<circle class="st3" cx="121.1" cy="36" r="5.5"/>
</svg>
