<?xml version="1.0" encoding="utf-8"?>
<!-- Generator: Adobe Illustrator 22.0.0, SVG Export Plug-In . SVG Version: 6.00 Build 0)  -->
<svg version="1.1" id="Layer_1" xmlns="http://www.w3.org/2000/svg" xmlns:xlink="http://www.w3.org/1999/xlink" x="0px" y="0px"
	 viewBox="0 0 200 200" style="enable-background:new 0 0 200 200;" xml:space="preserve">
<style type="text/css">
	.st0{fill:#3D897A;}
	.st1{fill:#FFFFFF;}
	.st2{fill:none;stroke:#FFFFFF;stroke-width:2;stroke-miterlimit:10;}
</style>
<circle class="st0" cx="100" cy="100" r="100"/>
<rect x="99.5" y="57.8" transform="matrix(0.7071 -0.7071 0.7071 0.7071 -3.3014 113.7325)" class="st1" width="72.3" height="6.1"/>
<polygon class="st1" points="33.8,163.5 58.7,138.6 57.7,137.7 34.9,160.5 "/>
<path class="st1" d="M93.7,86.6l-22.2,22.2c-4.4,4.4-4.4,11.5,0,15.9l0,0l0,0c4.4,4.4,11.5,4.4,15.9,0l22.2-22.2L93.7,86.6z"/>
<path class="st2" d="M116.2,60.9L135.3,80l0,0l-47.1,47.1c-5.3,5.3-13.8,5.3-19.1,0l0,0l0,0c-5.3-5.3-5.3-13.8,0-19.1L116.2,60.9
	L116.2,60.9L116.2,60.9z"/>
<path class="st2" d="M69.2,127.1L69.2,127.1c-1.4-1.4-2.5-3.1-3.2-5l-8.4,8.4c-2.3,2.3-2.3,5.9,0,8.2l0,0c2.3,2.3,5.9,2.3,8.2,0l0,0
	l8.4-8.4C72.3,129.6,70.6,128.5,69.2,127.1z"/>
<rect x="101.8" y="78.5" transform="matrix(0.7071 -0.7071 0.7071 0.7071 -32.8004 101.48)" class="st1" width="8.5" height="23.7"/>
<ellipse transform="matrix(0.6494 -0.7604 0.7604 0.6494 29.4939 134.7298)" class="st1" cx="160.9" cy="35.4" rx="4" ry="13.3"/>
</svg>
