<?xml version="1.0" encoding="utf-8"?>
<!-- Generator: Adobe Illustrator 22.0.0, SVG Export Plug-In . SVG Version: 6.00 Build 0)  -->
<svg version="1.1" id="Layer_1" xmlns="http://www.w3.org/2000/svg" xmlns:xlink="http://www.w3.org/1999/xlink" x="0px" y="0px"
	 viewBox="0 0 200 200" style="enable-background:new 0 0 200 200;" xml:space="preserve">
<style type="text/css">
	.st0{fill:#FFFFFF;}
</style>
<circle cx="100" cy="100" r="100"/>
<path class="st0" d="M63.4,25.1c0,0-38.2,21.8-16.3,69.9s63.5,65.1,63.5,65.1s33.2,17.6,59.5-12.6c0,0,10.1-7.8-4.1-19
	c-14.2-11.2-20.8-20.1-33.6-11.3c0,0-6.7,5.1-8.5,7.7c-1.8,2.7-8.9,6.7-20.2-3S75.3,94,75.1,85.9c-0.2-8.2,2.3-11.5,5.7-13.5
	c3.4-2,17-9.9,11.4-22.4c-5.7-12.4-10.3-20.4-15.8-24.3s-6.2-3.7-12.1-1.6L63.4,25.1z"/>
</svg>
