<?xml version="1.0" encoding="utf-8"?>
<!-- Generator: Adobe Illustrator 22.0.0, SVG Export Plug-In . SVG Version: 6.00 Build 0)  -->
<svg version="1.1" id="Layer_1" xmlns="http://www.w3.org/2000/svg" xmlns:xlink="http://www.w3.org/1999/xlink" x="0px" y="0px"
	 viewBox="0 0 500 75" style="enable-background:new 0 0 500 75;" xml:space="preserve">
<style type="text/css">
	.st0{fill:#E3CCEA;}
	.st1{fill:#00A7B2;}
	.st2{fill:#F4D9A4;}
	.st3{stroke:#000000;stroke-miterlimit:10;}
	.st4{fill:#020202;stroke:#000000;stroke-miterlimit:10;}
	.st5{fill:#050606;stroke:#000000;stroke-miterlimit:10;}
</style>
<polygon class="st0" points="334.1,35.2 334.1,55 397.7,55.4 398.8,36.1 386.8,30.8 375.1,30.8 360.9,35.2 347.8,37.5 "/>
<polygon class="st1" points="92.3,48.6 285,47.1 322.2,56.5 371.3,55.9 399.8,55.4 406.3,57.9 408.5,62.2 406.3,67.2 375.1,68.7 
	325.6,68.7 284.3,59.7 92.3,59.7 86.1,55 "/>
<polygon class="st2" points="334.8,5.6 337.9,12.1 344.7,14 354.1,11.9 365.1,5.6 377.7,2.7 390,4.5 399.2,11.6 402.4,22.9 
	398.8,36.1 393.4,32.3 382.2,30.5 366.1,33.6 353,37.5 337.5,35.2 331.2,31.4 325.6,23.1 326.7,14 332.1,7.8 "/>
<path class="st3" d="M404.4,54L324,53.9L285.1,45L90.4,46.1c0,0-14.3,5.5,0.3,15.7h194.7l40.4,9.5l80.3-1.4
	C417.8,58,404.4,54,404.4,54z M403.1,65.9l-77.5,1.3l-40-9.9L93.3,57.9c0,0-7.2-3.8-0.1-7.8l191.2-1.5l39.1,10l78.1-1.3
	C401.6,57.2,411.1,61.7,403.1,65.9z"/>
<path class="st4" d="M395.8,4.9c-18-10.4-35.2,1.6-45.3,6.1s-13.3-1.7-13.3-5.6s-2.9-2.4-3.4-2.5c-0.5-0.2-6.8,7.2-6.8,7.2
	c-8.8,15,5.1,25.1,5.1,25.1l0.4,21.3l67.3-1.1L400,37C411.7,13.7,395.8,4.9,395.8,4.9z M396.1,54.8L336.4,55l-0.3-17.6l5,1.5v7.6
	c2.8,5,3.8-2.2,3.8-2.2l0.4-4.7c0.8-0.7,4.7-0.1,4.7-0.1l-0.1,6.1c1.7,4.9,3.9-0.1,3.9-0.1l0.2-5.9c1.4-2,5.2-0.7,5.2-0.7l-0.1,6.6
	c2.7,6.1,4.2-1.5,4.2-1.5l0.1-5.8c-0.4-2.4,5.1-3,5.1-3s-0.8,3.2,0.5,10.1c1.2,6.9,3.2-1.5,3.2-1.5l0.3-9.1c4.1-3.3,4.7-0.9,4.7-0.9
	l0.5,11.3c2,5.6,3.2-0.1,3.2-0.1s-0.2-9,0.3-11.4c0.4-2.4,5.2-0.7,5.2-0.7l0.2,11c1.7,6.6,3.9,1.1,3.9,1.1s0.4-2.6,0-7.8
	s5.3,0.9,5.3,0.9L396.1,54.8z M397.7,34.3c0,0-12.6-11.4-34.1-1.5c0,0-25.5,8.3-34.5-6.1c0,0-5-7.5,3.9-18.6c0,0,3.9,13.2,19.3,6.1
	s26.3-13.4,40.2-7.1C392.6,7.1,405.5,14.5,397.7,34.3z"/>
<path class="st5" d="M379.4,11.2c0,0,9.2,0.7,11.2,6.1s6,1.8,4.8-0.1S391,6.9,380.1,7.9S379.4,11.2,379.4,11.2z"/>
</svg>
