<svg id="Layer_1" data-name="Layer 1" xmlns="http://www.w3.org/2000/svg" viewBox="0 0 410.94 435.45"><defs><style>.cls-1{fill:#fff;}</style></defs><title>Treat</title><path class="cls-1" d="M147.27,473.4s14.17-115.89,65-177.59,79.21,24.18,84.21,38.35,30,51.69,40,139.24c0,0,41.69-12.5,49.19-137.57,0,0,0-60,42.52-110.06S444.93,58.18,384.9,44.84,293.18,36.5,247.32,69c0,0,16.68,18.34,69.21,20.84,0,0-51.7,17.51-102.56-21.68S78.06,27.33,50.55,86.53,47.21,253.28,71.39,263.29s29.18,135.07,30.85,143.41,25,58.36,40,66.7Z" transform="translate(-38.32 -37.95)"/></svg>