<svg xmlns="http://www.w3.org/2000/svg" viewBox="0 0 431.9 408.42"><defs><style>.cls-1{fill:#fff;}</style></defs><title>Appointments</title><g id="Layer_1" data-name="Layer 1"><path class="cls-1" d="M418.15,88.65h-19V120.1a21.44,21.44,0,0,1-21.44,21.44h-16a21.44,21.44,0,0,1-21.44-21.44V88.65H116.45V120.1A21.44,21.44,0,0,1,95,141.54h-16A21.44,21.44,0,0,1,57.61,120.1V88.65h-25A23.16,23.16,0,0,0,9.41,111.81V437.3a23.16,23.16,0,0,0,23.16,23.16H418.15a23.16,23.16,0,0,0,23.16-23.16V111.81A23.16,23.16,0,0,0,418.15,88.65Zm7.91,344.27a15,15,0,0,1-15,15H38.6a15,15,0,0,1-15-15V180H426.06Z" transform="translate(-9.41 -52.04)"/><rect class="cls-1" x="48.2" y="169.73" width="61.03" height="61.03"/><rect class="cls-1" x="188.43" y="169.73" width="61.03" height="61.03"/><rect class="cls-1" x="328.66" y="169.73" width="61.03" height="61.03"/><rect class="cls-1" x="48.2" y="283.02" width="61.03" height="61.03"/><rect class="cls-1" x="188.43" y="283.02" width="61.03" height="61.03"/><rect class="cls-1" x="328.66" y="283.02" width="61.03" height="61.03"/><rect class="cls-1" x="56.18" width="42.88" height="73.22" rx="21.01" ry="21.01"/><rect class="cls-1" x="338.83" width="42.88" height="73.22" rx="21.01" ry="21.01"/></g></svg>