<?xml version="1.0" encoding="utf-8"?>
<!-- Generator: Adobe Illustrator 22.0.0, SVG Export Plug-In . SVG Version: 6.00 Build 0)  -->
<svg version="1.1" xmlns="http://www.w3.org/2000/svg" xmlns:xlink="http://www.w3.org/1999/xlink" x="0px" y="0px"
	 viewBox="0 0 471.8 447" style="enable-background:new 0 0 471.8 447;" xml:space="preserve">
<style type="text/css">
	.st0{display:none;}
	.st1{display:inline;fill:#3879BE;}
	.st2{fill:#FFFFFF;}
</style>
<g id="Layer_2" class="st0">
	<rect x="0" y="0" class="st1" width="471.8" height="447"/>
</g>
<g id="Layer_1">
	<title>Profile</title>
	<circle class="st2" cx="235.9" cy="137.3" r="137.3"/>
	<path class="st2" d="M-220.6,251.1c-38.7,0-70.1,31.4-70.1,70.1s31.4,70.1,70.1,70.1c38.7,0,70.1-31.4,70.1-70.1
		S-181.9,251.1-220.6,251.1z M-220.6,376.6c-30.6,0-55.5-24.8-55.5-55.5s24.8-55.5,55.5-55.5s55.5,24.8,55.5,55.5
		S-189.9,376.6-220.6,376.6z"/>
	<path class="st2" d="M-179.7,222.4h-50.8c-5.2,0-9.4-4.2-9.4-9.4v-12.8c0-5.2,4.2-9.4,9.4-9.4h50.8c5.2,0,9.4,4.2,9.4,9.4V213
		C-170.2,218.2-174.4,222.4-179.7,222.4z"/>
	<path class="st2" d="M-191.8,206.6v-23.8c0-2.1,2.3-3.4,4.1-2.3l20.6,11.9l20.6,11.9c1.8,1,1.8,3.6,0,4.7l-20.6,11.9l-20.6,11.9
		c-1.8,1-4.1-0.3-4.1-2.3V206.6z"/>
	<polygon class="st2" points="-28.9,252.7 -81.4,252.7 -81.4,200.2 -125.1,200.2 -125.1,252.7 -177.6,252.7 -177.6,296.4 
		-125.1,296.4 -125.1,348.9 -81.4,348.9 -81.4,296.4 -28.9,296.4 	"/>
	<path class="st2" d="M365.2,256.7c-53.9,58.4-138.1,72-206.1,39c8.1,15.2,12.7,32.6,12.7,51c0,45.3-27.8,84.1-67.2,100.3h367.2
		C471.8,367.4,429.4,297.4,365.2,256.7z"/>
	<rect x="1.5" y="333" class="st2" width="116.1" height="43.7"/>
</g>
</svg>
