<svg xmlns="http://www.w3.org/2000/svg" viewBox="0 0 466.51 465.6"><defs><style>.cls-1{fill:#fff;}.cls-2{fill:none;stroke:#fff;stroke-miterlimit:10;stroke-width:6px;}</style></defs><title>Treatment</title><g id="Layer_1" data-name="Layer 1"><rect class="cls-1" x="347.76" y="18.6" width="20.67" height="245.25" transform="translate(192.23 -235.68) rotate(45)"/><polygon class="cls-1" points="0 465.6 84.46 381.14 81.31 377.99 3.9 455.4 0 465.6"/><path class="cls-1" d="M215.86,228.65,140.53,304a38.17,38.17,0,0,0,0,54h0a38.19,38.19,0,0,0,54,0l75.33-75.32Z" transform="translate(-12.52 -23.83)"/><path class="cls-2" d="M182.73,134.1h91.73a0,0,0,0,1,0,0V359.84a45.86,45.86,0,0,1-45.86,45.86h0a45.86,45.86,0,0,1-45.86-45.86V134.1a0,0,0,0,1,0,0Z" transform="translate(245.28 -106.42) rotate(45)"/><path class="cls-2" d="M132.57,365.93h0A45.67,45.67,0,0,1,121.82,349L93.27,377.53a19.59,19.59,0,0,0,0,27.7h0a19.57,19.57,0,0,0,27.69,0l28.56-28.56A45.61,45.61,0,0,1,132.57,365.93Z" transform="translate(-12.52 -23.83)"/><rect class="cls-1" x="217.64" y="227.02" width="80.48" height="28.83" transform="translate(233.74 -135.47) rotate(45)"/><ellipse class="cls-1" cx="443.62" cy="54.87" rx="13.5" ry="45.09" transform="translate(101.3 332.76) rotate(-49.5)"/></g></svg>