<svg xmlns="http://www.w3.org/2000/svg" viewBox="0 0 2000 2002"><defs><style>.cls-1{fill:#5fa3d9;}.cls-2{fill:#f9d9b6;}.cls-3{fill:#9e2e21;}.cls-4{fill:#c88565;}.cls-5{fill:#794634;}.cls-6{fill:#e29586;}.cls-7{fill:#ddbc99;}.cls-8{fill:#dad8d9;}.cls-9{fill:#999a98;}.cls-10{fill:#a1563a;}.cls-11{fill:#e3e5e5;}.cls-12{fill:#d5b491;}.cls-13{fill:#d6b493;}.cls-14{fill:#fffffd;stroke:#070808;stroke-miterlimit:10;stroke-width:4px;}</style></defs><title>Root canal treatment</title><g id="Layer_3" data-name="Layer 3"><rect class="cls-1" y="2" width="2000" height="2000"/></g><g id="Layer_2" data-name="Layer 2"><path class="cls-2" d="M261.94,1009.31S258,1447.58,451.73,1658.9c77.37,84.4,136.64,152.89,202.37,204.58q4.78,3.78,9.64,7.43c96.62,72.82,209.44,110,414.1,108.87,352.19-2,587-463.71,614.37-567.41s23.39-57,39.13-172.18S1672.64,890,1672.64,890L1430,857.08,665.37,907.5,475.21,857.08,299.12,893.87Z" transform="translate(0 2)"/><path class="cls-3" d="M1201.27,1838.56c-74.55-18.63-157.49-28.88-271.19,14.92s-276,10-276,10q4.78,3.78,9.64,7.43c36.48,27.49,75.27,49.9,120.45,67.09,48-1.46,95.94-9.51,131-26.21,102.51-48.87,204.09-35.56,204.09-35.56,88.16,12.13,149.14,25,188.67,35.15a654,654,0,0,0,81.45-58C1298.93,1850.3,1201.27,1838.56,1201.27,1838.56Z" transform="translate(0 2)"/><path class="cls-4" d="M659.1,875.15S369.55,751,271.72,837.13c0,0-15.65,150.66-9.78,172.18,0,0,58.7-162.4,183.92-125.22,0,0,201.53,13.69,199.57,125.22s-66.52,520.45,0,637.85,74.35,193.7,197.62,195.66c0,0,107.61-25.44,123.26-395.24,0,0,38.16-363.59,69.31-285.66s7,254.36,26.57,377.62,118.78,278,158.48,289.58,131.09,39.13,197.62-317c0,0,11.82-195.66-44-375.66,0,0-16.68-248.49,77.24-244.58s148.7-56.74,223,119.35,56.74,228.93,56.74,228.93,50.87-304.46,11.74-383.11c0,0-289.43-97.44-407.88,0S659.1,875.15,659.1,875.15Z" transform="translate(0 2)"/><polygon class="cls-5" points="705.46 603.31 833.35 1005.44 1314.59 1038.7 1374.31 518.36 705.46 578.41 705.46 603.31"/><path class="cls-6" d="M824.76,905.65s14.38-23.52,43.72-21.56,35.22-62.61,35.22-62.61,11.74,64.56,0,93.91,45,79.23,45,79.23l86.92-22.49,69.61,22.49L1091.54,981s49.93-53.75,139.43,0l83.62,624.26L1263,1786.61l-3.17,66s-14.45,39.13-21.9,0,9.25-74.08,9.25-74.08l-177.48-698.77L976.1,1061l-76.31,222.26-31.31,291.53-60.65,203.49-5.91,129.13s-13.66,17.61-17.57-17.61-9.53-140.38-9.53-140.38l-69.36-374.2,28-360,37.18-64.57Z" transform="translate(0 2)"/><path class="cls-7" d="M803,1605.25s-16.7-513.8,81.13-610.63,246.73-60,287.72,66.35,70.73,518.53,54.68,609.67-142.83-560-142.83-560l-67.27-66.13L917.4,1248,860.65,1527.8Z" transform="translate(0 2)"/><path class="cls-8" d="M791.36,434.7s77.12,5.24,133.87-31.94,188-18.67,246.63,16.1,225.73-20.24,290.86,33.68-263.57,52-263.57,52L770.66,492.77Z" transform="translate(0 2)"/><path class="cls-9" d="M851.51,475s171.23-76.2,327.92,17.77-7.57,58.49-7.57,58.49-169.1,58.1-312.55-2.13S851.51,475,851.51,475Z" transform="translate(0 2)"/><path class="cls-10" d="M859.31,549.08s163.94,58.62,312.55,2.13,0,59.65,0,59.65-111.63,56-166.41,56-84.15-23-144.8-58.48S859.31,549.08,859.31,549.08Z" transform="translate(0 2)"/><path class="cls-11" d="M561.1,588.84S496.49,337.85,682.87,400s156.56,42.24,164,62.12,17.39,47.22,12.42,87c0,0-191.35-82-203.77,14.91s59.64,213.72,69.58,236.09,69.58,171.47,44.73,422.47-2.48,360.34,2.49,382.7,2.48,144.14,2.48,144.14S658,1684.78,660.51,1292.13c0,0,56.45-265.44-24.86-502C635.65,790.14,595.89,715.58,561.1,588.84Z" transform="translate(0 2)"/><path class="cls-11" d="M1182.45,483.4s-21.19,61.45-10.59,67.81c0,0,182.23-78.4,197.07,0s0,139.86-57.22,224.62-65.69,326.33-50.85,529.76,8.47,277.6,0,317.86l2.11,163.16s144.26-131.38,111.34-508.57c0,0-73.19-334.81,22.16-500.09,0,0,108.08-156.81,95.36-281.84C1491.83,496.11,1485.47,366.85,1182.45,483.4Z" transform="translate(0 2)"/><path class="cls-12" d="M860.65,608.42l-1.34-59.34S668,467.07,655.54,564s59.64,213.72,69.58,236.09,69.58,171.47,44.73,422.47-2.48,360.34,2.49,382.7c11.57-9.71,3.25-225.49,25.79-433.16s62.23-273.36-35.25-461.95S860.65,608.42,860.65,608.42Z" transform="translate(0 2)"/><path class="cls-13" d="M1260.86,1305.59c-14.84-203.43-6.36-445,50.85-529.76s72-146.22,57.22-224.62-197.07,0-197.07,0v59.65s153.81-71.91,119.35,27S1180.33,816.21,1204.31,981s40.45,374.54,40.45,391,16.1,251.44,16.1,251.44C1269.33,1583.19,1275.69,1509,1260.86,1305.59Z" transform="translate(0 2)"/><path class="cls-11" d="M793.47,1623.45s-1.29,162.62,14.36,154.8S917.4,1647.16,937,1447.58s55.17-367.83,83.34-362,53.62,127.18,67.31,428.5c0,0,62.75,251,159.53,264.41l-9.25-141.15s-38.75-156.52-42.66-293.49-105-387.4-178.69-344.36c0,0-138.28-17.6-173.5,324.8S811.54,1574.26,793.47,1623.45Z" transform="translate(0 2)"/><path class="cls-14" d="M1105.07,0l-88.52,328.41-24.67-12.85-9.91,50,21.52,43L884.14,856.69s25.43-15.65,27.39,0,124.09-448.06,124.09-448.06L1077,390.09l14.54-46h-17.61L1167.29,0Z" transform="translate(0 2)"/></g></svg>