<?xml version="1.0" encoding="utf-8"?>
<!-- Generator: Adobe Illustrator 22.0.0, SVG Export Plug-In . SVG Version: 6.00 Build 0)  -->
<svg version="1.1" id="Layer_1" xmlns="http://www.w3.org/2000/svg" xmlns:xlink="http://www.w3.org/1999/xlink" x="0px" y="0px"
	 viewBox="0 0 2000 2002" style="enable-background:new 0 0 2000 2002;" xml:space="preserve">
<style type="text/css">
	.st0{fill:#F7E64B;}
	.st1{fill:#F9D9B6;}
	.st2{fill:#9E2E21;}
	.st3{fill:#C88565;}
	.st4{fill:#794634;}
	.st5{fill:#E29586;}
	.st6{fill:#DDBC99;}
	.st7{fill:#DAD8D9;}
	.st8{fill:#999A98;}
	.st9{fill:#A1563A;}
	.st10{fill:#E3E5E5;}
	.st11{fill:#D5B491;}
	.st12{fill:#D6B493;}
	.st13{fill:#FFFFFD;stroke:#070808;stroke-width:4;stroke-miterlimit:10;}
</style>
<title>Root canal treatment</title>
<g id="Layer_3">
	<g>
		<rect y="2" class="st0" width="2000" height="2000"/>
	</g>
</g>
<g id="Layer_2_1_">
	<path class="st1" d="M261.9,1011.3c0,0-3.9,438.3,189.8,649.6c77.4,84.4,136.6,152.9,202.4,204.6c3.2,2.5,6.4,5,9.6,7.4
		c96.6,72.8,209.4,110,414.1,108.9c352.2-2,587-463.7,614.4-567.4s23.4-57,39.1-172.2S1672.6,892,1672.6,892L1430,859.1l-764.6,50.4
		l-190.2-50.4l-176.1,36.8L261.9,1011.3z"/>
	<path class="st2" d="M1201.3,1840.6c-74.6-18.6-157.5-28.9-271.2,14.9s-276,10-276,10c3.2,2.5,6.4,5,9.6,7.4
		c36.5,27.5,75.3,49.9,120.5,67.1c48-1.5,95.9-9.5,131-26.2c102.5-48.9,204.1-35.6,204.1-35.6c88.2,12.1,149.1,25,188.7,35.2
		c28.6-17.2,55.8-36.6,81.4-58C1298.9,1852.3,1201.3,1840.6,1201.3,1840.6z"/>
	<path class="st3" d="M659.1,877.2c0,0-289.5-124.2-387.4-38c0,0-15.6,150.7-9.8,172.2c0,0,58.7-162.4,183.9-125.2
		c0,0,201.5,13.7,199.6,125.2s-66.5,520.5,0,637.8s74.3,193.7,197.6,195.7c0,0,107.6-25.4,123.3-395.2c0,0,38.2-363.6,69.3-285.7
		s7,254.4,26.6,377.6s118.8,278,158.5,289.6s131.1,39.1,197.6-317c0,0,11.8-195.7-44-375.7c0,0-16.7-248.5,77.2-244.6
		s148.7-56.7,223,119.3s56.7,228.9,56.7,228.9s50.9-304.5,11.7-383.1c0,0-289.4-97.4-407.9,0S659.1,877.2,659.1,877.2z"/>
	<polygon class="st4" points="705.5,603.3 833.3,1005.4 1314.6,1038.7 1374.3,518.4 705.5,578.4 	"/>
	<path class="st5" d="M824.8,907.7c0,0,14.4-23.5,43.7-21.6s35.2-62.6,35.2-62.6s11.7,64.6,0,93.9s45,79.2,45,79.2l86.9-22.5
		l69.6,22.5l-13.7-13.6c0,0,49.9-53.8,139.4,0l83.6,624.3l-51.6,181.3l-3.2,66c0,0-14.4,39.1-21.9,0s9.3-74.1,9.3-74.1l-177.5-698.8
		l-93.6-18.8l-76.3,222.3l-31.3,291.5l-60.7,203.5l-5.9,129.1c0,0-13.7,17.6-17.6-17.6s-9.5-140.4-9.5-140.4l-69.4-374.2l28-360
		l37.2-64.6L824.8,907.7z"/>
	<path class="st6" d="M803,1607.3c0,0-16.7-513.8,81.1-610.6s246.7-60,287.7,66.3s70.7,518.5,54.7,609.7s-142.8-560-142.8-560
		l-67.3-66.1l-99,203.5l-56.8,279.8L803,1607.3z"/>
	<path class="st7" d="M791.4,436.7c0,0,77.1,5.2,133.9-31.9s188-18.7,246.6,16.1s225.7-20.2,290.9,33.7s-263.6,52-263.6,52
		l-428.5-11.8L791.4,436.7z"/>
	<path class="st8" d="M851.5,477c0,0,171.2-76.2,327.9,17.8s-7.6,58.5-7.6,58.5s-169.1,58.1-312.5-2.1S851.5,477,851.5,477z"/>
	<path class="st9" d="M859.3,551.1c0,0,163.9,58.6,312.5,2.1s0,59.7,0,59.7s-111.6,56-166.4,56s-84.2-23-144.8-58.5
		S859.3,551.1,859.3,551.1z"/>
	<path class="st10" d="M561.1,590.8c0,0-64.6-251,121.8-188.8s156.6,42.2,164,62.1s17.4,47.2,12.4,87c0,0-191.4-82-203.8,14.9
		s59.6,213.7,69.6,236.1s69.6,171.5,44.7,422.5s-2.5,360.3,2.5,382.7s2.5,144.1,2.5,144.1s-116.8-64.7-114.3-457.3
		c0,0,56.5-265.4-24.9-502C635.7,792.1,595.9,717.6,561.1,590.8z"/>
	<path class="st10" d="M1182.4,485.4c0,0-21.2,61.4-10.6,67.8c0,0,182.2-78.4,197.1,0s0,139.9-57.2,224.6s-65.7,326.3-50.8,529.8
		s8.5,277.6,0,317.9l2.1,163.2c0,0,144.3-131.4,111.3-508.6c0,0-73.2-334.8,22.2-500.1c0,0,108.1-156.8,95.4-281.8
		C1491.8,498.1,1485.5,368.9,1182.4,485.4z"/>
	<path class="st11" d="M860.7,610.4l-1.3-59.3c0,0-191.3-82-203.8,14.9s59.6,213.7,69.6,236.1s69.6,171.5,44.7,422.5
		s-2.5,360.3,2.5,382.7c11.6-9.7,3.3-225.5,25.8-433.2s62.2-273.4-35.3-462S860.7,610.4,860.7,610.4z"/>
	<path class="st12" d="M1260.9,1307.6c-14.8-203.4-6.4-445,50.8-529.8s72-146.2,57.2-224.6s-197.1,0-197.1,0v59.7
		c0,0,153.8-71.9,119.3,27s-110.9,178.4-86.9,343.1s40.4,374.5,40.4,391s16.1,251.4,16.1,251.4
		C1269.3,1585.2,1275.7,1511,1260.9,1307.6z"/>
	<path class="st10" d="M793.5,1625.4c0,0-1.3,162.6,14.4,154.8s109.6-131.1,129.2-330.7s55.2-367.8,83.3-362
		c28.2,5.8,53.6,127.2,67.3,428.5c0,0,62.8,251,159.5,264.4l-9.3-141.2c0,0-38.8-156.5-42.7-293.5s-105-387.4-178.7-344.4
		c0,0-138.3-17.6-173.5,324.8S811.5,1576.3,793.5,1625.4z"/>
	<path class="st13" d="M1105.1,2l-88.5,328.4l-24.7-12.9l-9.9,50l21.5,43L884.1,858.7c0,0,25.4-15.7,27.4,0s124.1-448.1,124.1-448.1
		l41.4-18.5l14.5-46h-17.6L1167.3,2H1105.1z"/>
</g>
</svg>
