<?xml version="1.0" encoding="utf-8"?>
<!-- Generator: Adobe Illustrator 22.0.0, SVG Export Plug-In . SVG Version: 6.00 Build 0)  -->
<svg version="1.1" id="Layer_1" xmlns="http://www.w3.org/2000/svg" xmlns:xlink="http://www.w3.org/1999/xlink" x="0px" y="0px"
	 viewBox="0 0 2002.5 2000" style="enable-background:new 0 0 2002.5 2000;" xml:space="preserve">
<style type="text/css">
	.st0{fill:#37B772;}
	.st1{fill:#FFFFFF;}
	.st2{fill:#EFEEED;}
	.st3{fill:#F37872;}
	.st4{fill:#D8AB4D;}
	.st5{fill:#4D4E4D;stroke:#0B0B0B;stroke-width:5;stroke-miterlimit:10;}
	.st6{fill:#B3B3B3;stroke:#080908;stroke-width:5;stroke-miterlimit:10;}
	.st7{fill:#A5A4A3;}
</style>
<title>Scale and Polish</title>
<g id="Layer_1_1_">
	<g>
		<rect x="2.5" class="st0" width="2000" height="2000"/>
	</g>
</g>
<g id="Layer_2_1_">
	<path class="st1" d="M816,1178c0,0-100-153.1-100-249.6s-20.5-319.5,184.6-275.9s64.1,47.8,225.6-5.6s215.3,192.7,128.2,531.1
		S816,1178,816,1178z"/>
	<path class="st1" d="M1344.1,1085.8c0,0-117.9-435.9,97.4-446.1s84.6,64.2,287.1,12.9s205.1,159,92.3,551.2
		S1344.1,1085.8,1344.1,1085.8z"/>
	<path class="st2" d="M1273,1096.8c59-295.5,1.5-498.9-146.8-449.9c-161.5,53.4-20.5,49.2-225.6,5.6c-16.1-3.6-32.5-5.4-48.9-5.6
		C997.6,729.3,1237.4,893.2,1273,1096.8z"/>
	<path class="st2" d="M1851.2,1091.6c80-319.5,59.7-485.2-122.6-439.1c-202.5,51.3-71.8-23.1-287.1-12.9c-35,1.7-61.2,14.6-80.5,35
		C1503,731.9,1829.6,885.3,1851.2,1091.6z"/>
	<path class="st1" d="M195.5,1108.8c0,0-164.1-353.8,28.1-461.4c0,0,71.8-15.4,158.9,38.5s125.6-27.1,151.3-40.5
		C559.5,632,662,632,685.1,755s0,410.2-69.2,464S195.5,1108.8,195.5,1108.8z"/>
	<path class="st2" d="M663.6,1126.1c30.8-110.5,38-282.9,21.5-371C662,632,559.5,632,533.8,645.3s-64.1,94.3-151.3,40.5
		s-158.9-38.5-158.9-38.5c-2.6,1.5-5.2,3-7.7,4.6C352.6,683.3,610,786.9,663.6,1126.1z"/>
	<path class="st3" d="M2002.5,1062.6c-27.1,1.2-56.7,3.8-88.9,8c-752,97.5-1783.4,17.5-1783.4,17.5s-62.7-11.7-127.7-5.6v404
		c231.6,268.6,494,102.2,1203.8,168.3c308.2,28.7,601.4-72.5,796.2-199V1062.6z"/>
	<path class="st4" d="M162.4,984c-3.7,10.5-23.4,74.3,0,119s87.3,29.8,91.6,51.1s55.4,53.3,61.8,19.2s17-80.6,0-87.2
		s-29.8-3.7-59.6-24.3S172.5,955.4,162.4,984z"/>
	<path class="st4" d="M447.9,1083.3c-22.4-1.6-59.6,75.2,14.9,77.3s187.5-40.5,242.9-17s157.6,2.1,179,2.1s121.4-40.5-21.3-51.1
		c0,0-70.3-21.3-70.3-51.1s-57.2-36.2-77.6-19.2s-69.4-20.7-80-9.3s-44.7,14.9-51.1,55.7S469.2,1084.8,447.9,1083.3z"/>
	<path class="st4" d="M1259.6,1049.8c-14.9,6.4-110.8,56.8-140.6,36.9s-51.1,63.2,29.8,65.4s285.5-46.9,323.8,0s255.6-32,294-12.8
		s121.3-37.8,129.1-52.6s-50.4-46-69.5-24.8s-166.2,35.9-187.5,8.7s-137.6-17.6-144.4,0s-130.2-37.8-182.5-29.3L1259.6,1049.8z"/>
	<path class="st5" d="M760.7,643.7l367.2,228.5c0,0,65.3,20.4,118.3,28.6s97.9,57.1-57.1,236.7c0,0,142.8-224.4,16.3-216.3
		c0,0-89.8-8.2-122.4-30.6S707.7,643.7,707.7,643.7H760.7z"/>
	<polygon class="st6" points="405.8,325.4 2.5,82.2 2.5,296.5 279.3,472.3 462.9,517.2 773,700.8 817.8,647.8 499.6,447.8 	"/>
	<path class="st7" d="M2.5,292l210.9,134c-3.1-79.1-15.5-157.5-36.8-233.8L2.5,87.1V292z"/>
</g>
</svg>
