<?xml version="1.0" encoding="utf-8"?>
<!-- Generator: Adobe Illustrator 22.0.0, SVG Export Plug-In . SVG Version: 6.00 Build 0)  -->
<svg version="1.1" id="Layer_1" xmlns="http://www.w3.org/2000/svg" xmlns:xlink="http://www.w3.org/1999/xlink" x="0px" y="0px"
	 viewBox="0 0 2000 2000" style="enable-background:new 0 0 2000 2000;" xml:space="preserve">
<style type="text/css">
	.st0{fill:#ED9F64;}
	.st1{fill:#FFFFFF;}
	.st2{fill:#D3D2D1;}
</style>
<title>Teeth Whitening</title>
<g id="Layer_2_1_">
	<g>
		<rect class="st0" width="2000" height="2000"/>
	</g>
</g>
<g id="Layer_1_1_">
	<path class="st1" d="M539.8,937.5c0,0,101.5,191.6,61,332s-65.3,319,20.3,441.5s150.5,158.9,170.5,160.3s42.1-25.3,24.4-81.9
		s-78-280.9,12-384.7s177.8-136.2,268,10.6s-3.7,341.4-21.6,420s78.8,41,120.2,16s171.8-79.8,155-461.3c0,0-72.1-171.8,72.4-388.4
		s73-334.4,73-334.4s-62.2-273.6-352.4-199c0,0-150.2,84.2-349.7-49.7s-397.8,223.8-294,400.8L539.8,937.5z"/>
	<path class="st2" d="M815.7,1789c-17.7-56.6-77.9-280.9,12.1-384.7s177.8-136.2,268,10.6s-3.7,341.4-21.6,420s78.8,41,120.2,16
		s171.8-79.8,155-461.3c0,0-68.6-163.5,62.3-372.6c-239.8,142.6-160.4,256.9-155.2,273.6c6.3,19.9,40.3,245.9-126.3-12.9
		s-338.7-20.5-338.7-20.5s-104.6,203.9-97.1-23.9c5.1-154.3-79.5-223.9-134.7-252.8c27.3,64.7,69.5,189.4,40.9,288.5
		c-40.5,140.3-65.3,319.1,20.3,441.5s150.5,158.9,170.5,160.3S833.5,1845.6,815.7,1789z"/>
	<path class="st1" d="M1551.3,187.1c0,0,0.7,205.1,136.7,190.4c0,0-139.9,8.5-139.6,186.5c0,0,12-159.6-136.7-190.4
		C1411.7,373.6,1554.8,377.4,1551.3,187.1z"/>
	<path class="st1" d="M1326.6,187.1c0,0,0.4,127.6,85.1,118.5c0,0-87.1,5.3-86.9,116c0,0,7.5-99.3-85.1-118.5
		C1239.7,303.2,1328.8,305.5,1326.6,187.1z"/>
	<path class="st1" d="M1589.6,551.5c0,0,0.3,76.1,50.7,70.7c0,0-51.9,3.2-51.8,69.2c0,0,4.4-59.2-50.8-70.7
		C1537.7,620.7,1590.8,622.1,1589.6,551.5z"/>
	<path class="st2" d="M1142.6,468.2c0,0-150.2,84.2-349.7-49.7C650,322.6,507.8,478.7,476.7,640c35.7-80.5,97.9-218.4,190.7-218.4
		c158,0,211.7,116.2,318.3,112.4s197.8-19.1,254-45.9c12-5.7,17.5-17.3,18.9-32.1C1224.7,453.6,1186.2,457,1142.6,468.2z"/>
</g>
</svg>
