<svg xmlns="http://www.w3.org/2000/svg" viewBox="0 0 2000 2000"><defs><style>.cls-1{fill:#62bc4f;}.cls-2{fill:#fff;}.cls-3{fill:#d3d2d1;}</style></defs><title>Teeth Whitening</title><g id="Layer_2" data-name="Layer 2"><rect class="cls-1" width="2000" height="2000"/></g><g id="Layer_1" data-name="Layer 1"><path class="cls-2" d="M539.78,937.51s101.49,191.6,61,332S535.5,1588.52,621.07,1711s150.48,158.91,170.5,160.29,42.07-25.29,24.36-81.92S738,1508.49,828,1404.7s177.75-136.23,268,10.55-3.7,341.4-21.57,420,78.8,41,120.16,16,171.76-79.79,155-461.32c0,0-72.1-171.81,72.45-388.36S1495,667.2,1495,667.2s-62.15-273.57-352.45-199c0,0-150.17,84.24-349.71-49.67s-397.79,223.77-294,400.82Z"/><path class="cls-3" d="M815.74,1789c-17.72-56.63-77.9-280.86,12.11-384.65s177.75-136.23,268,10.55-3.7,341.39-21.57,420,78.8,41,120.16,16,171.76-79.79,155-461.32c0,0-68.58-163.52,62.26-372.56-239.79,142.62-160.45,256.9-155.17,273.61,6.31,19.95,40.35,245.92-126.29-12.89s-338.72-20.51-338.72-20.51-104.64,203.93-97.14-23.89c5.08-154.29-79.53-223.88-134.68-252.75,27.27,64.7,69.48,189.37,40.89,288.49-40.48,140.35-65.28,319.05,20.29,441.52s150.48,158.91,170.5,160.29S833.45,1845.6,815.74,1789Z"/><path class="cls-2" d="M1551.34,187.14s.72,205.08,136.74,190.41c0,0-139.94,8.55-139.64,186.47,0,0,12-159.57-136.74-190.42C1411.7,373.6,1554.8,377.4,1551.34,187.14Z"/><path class="cls-2" d="M1326.6,187.14s.45,127.63,85.1,118.5c0,0-87.09,5.32-86.9,116.05,0,0,7.47-99.31-85.1-118.51C1239.7,303.18,1328.76,305.55,1326.6,187.14Z"/><path class="cls-2" d="M1589.56,551.47s.27,76.1,50.74,70.66c0,0-51.93,3.17-51.81,69.2,0,0,4.45-59.21-50.75-70.66C1537.74,620.67,1590.85,622.08,1589.56,551.47Z"/><path class="cls-3" d="M1142.55,468.17S992.38,552.41,792.84,418.5c-142.84-95.85-285,60.19-316.19,221.55,35.67-80.53,97.87-218.36,190.73-218.36,158,0,211.68,116.2,318.32,112.37s197.82-19.13,254-45.94c12-5.71,17.54-17.33,18.89-32.07C1224.69,453.63,1186.2,457,1142.55,468.17Z"/></g></svg>