<?xml version="1.0" encoding="utf-8"?>
<!-- Generator: Adobe Illustrator 22.0.0, SVG Export Plug-In . SVG Version: 6.00 Build 0)  -->
<svg version="1.1" id="Layer_1" xmlns="http://www.w3.org/2000/svg" xmlns:xlink="http://www.w3.org/1999/xlink" x="0px" y="0px"
	 viewBox="0 0 2000 2002.5" style="enable-background:new 0 0 2000 2002.5;" xml:space="preserve">
<style type="text/css">
	.st0{fill:#78649E;}
	.st1{fill:#D85C73;}
	.st2{fill:#FFFFFF;}
	.st3{fill:#E5E6EB;}
	.st4{fill:#F5908F;}
	.st5{fill:none;stroke:#231F20;stroke-miterlimit:10;}
	.st6{fill:#D3D2D1;}
	.st7{fill:#989492;}
	.st8{fill:#E7E9E9;}
	.st9{fill:#B0B0B0;}
	.st10{fill:#CFC5CB;stroke:#080707;stroke-width:5;stroke-miterlimit:10;}
</style>
<title>Tooth removal</title>
<g id="Layer_3">
	<g>
		<rect y="2.5" class="st0" width="2000" height="2000"/>
	</g>
</g>
<g id="Layer_2_1_">
	<path class="st1" d="M551.7,1692.5V1628l67.2,20.3c0,0,136,18.8,206.4,59.8s341.9-25.4,351.7-40s170.1-47.9,179.8-14.7
		s35.2,214,35.2,214l-584.2,66l-220.8-125.7L551.7,1692.5z"/>
	<path class="st2" d="M136.8,1702.2c0,0-56.1-180.5-29.3-287.8s100-90.2,156.1-75.6s117.1-9.8,163.4-34.1s200-26.8,204.9,156.1
		s-19.5,273.2-126.8,365.8s-348.8-9.8-348.8-9.8L136.8,1702.2z"/>
	<path class="st2" d="M1270.9,1741.2c0,0-70.7-261-17.1-365.8s148.8-97.6,234.2-51.2s126.8,2.4,153.7,0s119.5-26.8,119.5,134.2
		s21.9,433.7-331.7,407.1S1270.9,1741.2,1270.9,1741.2z"/>
	<path class="st3" d="M427,1304.8c-46.3,24.4-107.3,48.8-163.4,34.2c-3.2-0.8-6.5-1.7-9.8-2.5c2.3,4.3,36.9,64.6,178.9,68.6
		c147.2,4.1,64,257.5-38.1,297c-73.4,28.4-177.8,57.5-276.3-72.4c9.2,42.8,18.5,72.8,18.5,72.8l19.5,114.6
		c0,0,241.5,102.4,348.8,9.8s131.7-182.9,126.8-365.8S473.4,1280.4,427,1304.8z"/>
	<path class="st3" d="M1416.4,1661.2c-109-83.1-36.8-294.3,83.1-261.6c66,18,109.3-28.4,134.9-73.8c-27,7.8-68.4,40.9-146.4-1.5
		c-85.4-46.3-180.5-53.7-234.2,51.2s17.1,365.9,17.1,365.9s-195.1,97.6,158.5,124.2c249.4,18.8,312-111.4,327.3-246.2
		C1624.9,1769.9,1520,1740.2,1416.4,1661.2z"/>
	<path class="st4" d="M2000,1699.9c-96.9-49.2-243.3-80.5-243.3-80.5s6.4,49.6-99.1,137.6s-175.8,17.6-277.5-60.6
		s-173.9,3.9-183.7,13.7s-48.8,134.8-242.3,144.6S731.4,1753,651.3,1696.4s-123.1-41-203.2,39.1s-179.8,50.8-230.6,31.3
		s-99.3-137.1-99.3-137.1c-27.2-7.1-85.8,23.9-118.2,43v329.9h2000V1699.9z"/>
	<path class="st2" d="M817.7,887.2c0,0,2.1,129.7-57.6,193.5S638.6,1233,651,1321.5s37,125.6,47.3,131.7s29.3-2.1,35.2-37
		s34.7-170.9,110.9-201.7s131.7-24.3,140,78.4s-94.7,181-125.6,218s30.9,43.2,59.7,41.2s113.2,4.1,207.9-203.8
		c0,0,8.2-111.2,144.1-187.3s129.7-158.5,129.7-158.5l-8.4-16.5c0,0,49.6-146.1-125.4-185.3c0,0-102.9,4.1-172.9-121.5
		S747.7,757.5,828,813L817.7,887.2z"/>
	<path class="st5" d="M812.7,1235.3"/>
	<path class="st6" d="M733.5,1415.9c5.9-35,34.8-170.9,110.9-201.7s131.7-24.3,140,78.4s-94.7,181-125.6,218s30.9,43.2,59.7,41.2
		s113.2,4.1,207.9-203.8c0,0,7.9-105.8,134.4-181.7c-166.6,10.9-155.3,93.4-157,103.7c-2,12.3-45.3,142-63.8-41.2
		s-175-102.9-175-102.9s-111.2,80.3-45.3-39.1c44.6-80.8,18.4-140.9-3.2-171.3c-3,41.9-14.4,119.8-56.5,164.9
		c-59.7,63.8-121.5,152.3-109.1,240.8s37,125.6,47.3,131.7S727.6,1450.9,733.5,1415.9z"/>
	<path class="st6" d="M914.4,821.3c0,0-0.2-1.5-0.5-4C913.6,818.6,913.8,820,914.4,821.3z"/>
	<path class="st6" d="M924.7,738.9c-15.5,24.1-12.3,65.4-10.8,78.3c2.2-15.8,39.1-58.8,72.6-68c37-10.3,6.2-32.9,25.5-45.3
		c19.3-12.3,38.3,57.6,38.3,57.6l6.2-26.8l18.5,20.6l8.2-22.6L1110,776c-24.3,40.2-4.1,74.1-4.1,74.1c-1.8-29.7,26.3-61.3,58.4-87.5
		c-24.1-18-49-44.5-70.8-83.6c-38.2-68.6-138-38.9-207.4,11.3C912,702.7,934.7,723.5,924.7,738.9z"/>
	<path class="st7" d="M1374.2,507.7c18.1,52.5,112.7,335,112.7,335c35.8-41.3,3.2-98.3,3.2-98.3l-89.9-276.7l-28-52.3l-337.4,67.5
		c-57,6.7-64.5,50.1-64.5,50.1l307.9-67C1278.2,466,1356.1,455.2,1374.2,507.7z"/>
	<circle class="st8" cx="1416.7" cy="342.7" r="123.3"/>
	<path class="st9" d="M1441.1,432.4c-68.1,0-123.3-55.3-123.3-123.4c0-18.8,4.3-37.4,12.6-54.3c-48.7,47.7-49.5,125.8-1.8,174.4
		c47.7,48.7,125.8,49.5,174.4,1.8c10-9.8,18.2-21.2,24.4-33.7C1504.4,419.7,1473.4,432.4,1441.1,432.4z"/>
	<path class="st10" d="M1482.6,2.5l-126.4,228.1L1012,295.8c0,0-54.3,3.6-86.9,65.2L778.4,629c0,0-38,56.1-10.9,130.4
		s50.1,127.7,50.1,127.7l92.3-182c0,0-29.6-18.1,0-54.3l60.4-117.7l307.9-67c0,0,77.9-10.9,96,41.6s112.7,335,112.7,335l-71.1,125
		c0,0-32.6,38.8-50.7,34.8l-104.3,163.8l162.3-33.9c0,0,54.3,0,86.9-88.7l141.3-249.9c0,0,36.2-57.8-7.2-154.8l-99.6-301.6
		l186.2-335H1482.6z"/>
</g>
</svg>
