<svg xmlns="http://www.w3.org/2000/svg" viewBox="0 0 2000 2002.5"><defs><style>.cls-1{fill:#e59241;}.cls-2{fill:#d85c73;}.cls-3{fill:#fff;}.cls-4{fill:#e5e6eb;}.cls-5{fill:#f5908f;}.cls-6{fill:none;stroke:#231f20;}.cls-11,.cls-6{stroke-miterlimit:10;}.cls-7{fill:#d3d2d1;}.cls-8{fill:#989492;}.cls-9{fill:#e7e9e9;}.cls-10{fill:#b0b0b0;}.cls-11{fill:#cfc5cb;stroke:#080707;stroke-width:5px;}</style></defs><title>Tooth removal</title><g id="Layer_3" data-name="Layer 3"><rect class="cls-1" y="2.5" width="2000" height="2000"/></g><g id="Layer_2" data-name="Layer 2"><path class="cls-2" d="M551.67,1690v-64.48l67.17,20.3s136,18.78,206.37,59.81,341.93-25.4,351.7-40,170.11-47.87,179.76-14.66,35.17,214,35.17,214l-584.21,66L586.84,1805.23Z" transform="translate(0 2.5)"/><path class="cls-3" d="M136.78,1699.66s-56.1-180.49-29.27-287.81,100-90.24,156.1-75.61,117.07-9.75,163.41-34.14,200-26.83,204.88,156.1-19.51,273.17-126.83,365.85-348.78-9.76-348.78-9.76Z" transform="translate(0 2.5)"/><path class="cls-3" d="M1270.93,1738.68s-70.73-261-17.08-365.85,148.78-97.56,234.15-51.22,126.83,2.44,153.66,0,119.51-26.83,119.51,134.15,21.95,433.71-331.71,407.1S1270.93,1738.68,1270.93,1738.68Z" transform="translate(0 2.5)"/><path class="cls-4" d="M427,1302.31c-46.34,24.39-107.31,48.78-163.41,34.15q-4.85-1.26-9.84-2.53c2.27,4.26,36.9,64.63,178.87,68.58,147.16,4.08,64,257.52-38.15,297-73.43,28.39-177.82,57.49-276.25-72.44,9.22,42.78,18.54,72.76,18.54,72.76l19.51,114.64s241.47,102.44,348.78,9.75,131.71-182.92,126.83-365.85S473.37,1277.92,427,1302.31Z" transform="translate(0 2.5)"/><path class="cls-4" d="M1416.42,1658.67c-109-83.12-36.79-294.32,83.12-261.61,66,18,109.3-28.41,134.89-73.78-27,7.84-68.37,40.92-146.43-1.46-85.37-46.34-180.49-53.65-234.15,51.22s17.08,365.86,17.08,365.86-195.13,97.56,158.53,124.17c249.44,18.77,312-111.38,327.25-246.19C1624.89,1767.43,1520,1737.68,1416.42,1658.67Z" transform="translate(0 2.5)"/><path class="cls-5" d="M2000,1697.38c-96.93-49.18-243.29-80.5-243.29-80.5s6.37,49.62-99.14,137.55-175.85,17.58-277.45-60.57-173.9,3.91-183.67,13.67-48.84,134.82-242.28,144.59-222.74-101.6-302.85-158.26-123.1-41-203.21,39.08-179.75,50.8-230.56,31.26-99.31-137.09-99.31-137.09C91,1620,32.44,1651,0,1670.09V2000H2000Z" transform="translate(0 2.5)"/><path class="cls-3" d="M817.69,884.65s2.06,129.69-57.64,193.5S638.6,1230.47,651,1319s37,125.56,47.35,131.74,29.29-2.06,35.23-37S768.28,1242.82,844.45,1212s131.74-24.33,140,78.4-94.69,181-125.56,218,30.87,43.22,59.69,41.16,113.22,4.12,207.91-203.78c0,0,8.23-111.16,144.09-187.32S1400.23,1000,1400.23,1000l-8.39-16.54s49.56-146.15-125.41-185.26c0,0-102.92,4.11-172.91-121.45S747.7,755,828,810.55Z" transform="translate(0 2.5)"/><path class="cls-6" d="M812.67,1232.81" transform="translate(0 2.5)"/><path class="cls-7" d="M733.53,1413.43c5.94-35,34.75-170.86,110.92-201.73s131.74-24.33,140,78.4-94.69,181-125.56,218,30.87,43.22,59.69,41.17,113.22,4.11,207.91-203.79c0,0,7.86-105.78,134.37-181.67-166.55,10.9-155.29,93.36-157,103.7-2,12.35-45.28,142-63.81-41.17s-175-102.93-175-102.93-111.15,80.28-45.28-39.11c44.61-80.85,18.41-140.93-3.15-171.29-3,41.89-14.39,119.8-56.55,164.87-59.69,63.81-121.45,152.32-109.1,240.84s37,125.56,47.35,131.74S727.59,1448.42,733.53,1413.43Z" transform="translate(0 2.5)"/><path class="cls-7" d="M914.44,818.78s-.23-1.46-.52-4A6.09,6.09,0,0,0,914.44,818.78Z" transform="translate(0 2.5)"/><path class="cls-7" d="M924.73,736.44c-15.48,24.07-12.28,65.37-10.81,78.33C916.1,799,953,756,986.48,746.74c37-10.3,6.18-32.94,25.52-45.29s38.29,57.64,38.29,57.64l6.18-26.76L1075,752.91l8.23-22.64L1110,773.5c-24.25,40.21-4.12,74.1-4.12,74.1-1.8-29.68,26.27-61.32,58.44-87.54-24.06-18-49-44.5-70.79-83.56-38.24-68.62-137.95-38.89-207.43,11.27C912.05,700.23,934.66,721,924.73,736.44Z" transform="translate(0 2.5)"/><path class="cls-8" d="M1374.23,505.21c18.11,52.52,112.74,335,112.74,335,35.8-41.35,3.17-98.28,3.17-98.28l-89.87-276.69-28-52.27-337.42,67.48c-57,6.66-64.47,50.09-64.47,50.09l307.86-67S1356.12,452.7,1374.23,505.21Z" transform="translate(0 2.5)"/><circle class="cls-9" cx="1416.69" cy="342.71" r="123.32"/><path class="cls-10" d="M1441.08,429.85a123.36,123.36,0,0,1-110.7-177.72,123.33,123.33,0,1,0,197,142.48A122.91,122.91,0,0,1,1441.08,429.85Z" transform="translate(0 2.5)"/><path class="cls-11" d="M1482.57,0,1356.12,228.14,1012,293.33s-54.29,3.63-86.88,65.2l-146.69,268s-38,56.13-10.87,130.38,50.13,127.72,50.13,127.72l92.31-182s-29.61-18.11,0-54.33l60.39-117.71,307.86-67s77.87-10.86,96,41.65,112.74,335,112.74,335l-71.09,125s-32.6,38.83-50.71,34.81l-104.34,163.83L1423.12,1130s54.33,0,86.93-88.74L1651.3,791.34s36.22-57.83-7.24-154.78L1544.46,335,1730.66,0Z" transform="translate(0 2.5)"/></g></svg>